ISO-10303-21;
HEADER;
/* Generated by software containing ST-Developer
 * from STEP Tools, Inc. (www.steptools.com) 
 */
/* OPTION: using custom renumber hook */

FILE_DESCRIPTION(
/* description */ ('STEP AP242 Edition 2',
'CAx-IF Rec.Pracs.---Representation and Presentation of Product Manufa
cturing Information (PMI)---4.0---2014-10-13',
'CAx-IF Rec.Pracs.---3D Tessellated Geometry---0.4---2014-09-14','2;1',
'CAx-IF Rec.Pracs.---User Defined Attributes---1.5---2016-08-15'),
/* implementation_level */ '2;1');

FILE_NAME(
/* name */ 'Part Studio 1',
/* time_stamp */ '2026-08-11T22:53:07Z',
/* author */ (''),
/* organization */ (''),
/* preprocessor_version */ 'ST-DEVELOPER v20',
/* originating_system */ 'ONSHAPE BY PTC INC, 1.219',
/* authorisation */ '  ');

FILE_SCHEMA (('AP242_MANAGED_MODEL_BASED_3D_ENGINEERING_MIM_LF { 1 0 10303 442 3 1 4 }'));
ENDSEC;

DATA;
#10=SHAPE_REPRESENTATION_RELATIONSHIP('','',#1223,#11);
#11=ADVANCED_BREP_SHAPE_REPRESENTATION('',(#1221),#2083);
#12=B_SPLINE_SURFACE_WITH_KNOTS('',3,1,((#1878,#1879),(#1880,#1881),(#1882,
#1883),(#1884,#1885),(#1886,#1887),(#1888,#1889),(#1890,#1891),(#1892,#1893),
(#1894,#1895),(#1896,#1897),(#1898,#1899),(#1900,#1901),(#1902,#1903),(#1904,
#1905),(#1906,#1907),(#1908,#1909),(#1910,#1911),(#1912,#1913),(#1914,#1915)),
 .SURF_OF_LINEAR_EXTRUSION.,.T.,.F.,.F.,(1,1,1,1,1,1,1,1,1,1,1,1,1,1,1,
1,1,1,1,1,1,1,1),(2,2),(-1.17809724509617,-0.785398163397448,-0.392699081698725,
0.,0.392699081698724,0.785398163397448,1.17809724509617,1.5707963267949,
1.96349540849362,2.35619449019234,2.74889357189107,3.14159265358979,3.53429173528852,
3.92699081698724,4.31968989868597,4.71238898038469,5.10508806208341,5.49778714378214,
5.89048622548086,6.28318530717959,6.67588438887831,7.06858347057703,7.46128255227576),
(0.,1.),.UNSPECIFIED.);
#13=B_SPLINE_SURFACE_WITH_KNOTS('',3,1,((#1916,#1917),(#1918,#1919),(#1920,
#1921),(#1922,#1923),(#1924,#1925),(#1926,#1927),(#1928,#1929),(#1930,#1931),
(#1932,#1933),(#1934,#1935),(#1936,#1937),(#1938,#1939),(#1940,#1941),(#1942,
#1943),(#1944,#1945),(#1946,#1947),(#1948,#1949),(#1950,#1951),(#1952,#1953)),
 .SURF_OF_LINEAR_EXTRUSION.,.T.,.F.,.F.,(1,1,1,1,1,1,1,1,1,1,1,1,1,1,1,
1,1,1,1,1,1,1,1),(2,2),(-1.17809724509617,-0.785398163397448,-0.392699081698725,
0.,0.392699081698724,0.785398163397448,1.17809724509617,1.5707963267949,
1.96349540849362,2.35619449019234,2.74889357189107,3.14159265358979,3.53429173528852,
3.92699081698724,4.31968989868597,4.71238898038469,5.10508806208341,5.49778714378214,
5.89048622548086,6.28318530717959,6.67588438887831,7.06858347057703,7.46128255227576),
(0.,1.),.UNSPECIFIED.);
#14=B_SPLINE_SURFACE_WITH_KNOTS('',3,1,((#1954,#1955),(#1956,#1957),(#1958,
#1959),(#1960,#1961),(#1962,#1963),(#1964,#1965),(#1966,#1967),(#1968,#1969),
(#1970,#1971),(#1972,#1973),(#1974,#1975),(#1976,#1977),(#1978,#1979),(#1980,
#1981),(#1982,#1983),(#1984,#1985),(#1986,#1987),(#1988,#1989),(#1990,#1991)),
 .SURF_OF_LINEAR_EXTRUSION.,.T.,.F.,.F.,(1,1,1,1,1,1,1,1,1,1,1,1,1,1,1,
1,1,1,1,1,1,1,1),(2,2),(-1.17809724509617,-0.785398163397448,-0.392699081698725,
0.,0.392699081698724,0.785398163397448,1.17809724509617,1.5707963267949,
1.96349540849362,2.35619449019234,2.74889357189107,3.14159265358979,3.53429173528852,
3.92699081698724,4.31968989868597,4.71238898038469,5.10508806208341,5.49778714378214,
5.89048622548086,6.28318530717959,6.67588438887831,7.06858347057703,7.46128255227576),
(0.,1.),.UNSPECIFIED.);
#15=B_SPLINE_SURFACE_WITH_KNOTS('',3,1,((#1992,#1993),(#1994,#1995),(#1996,
#1997),(#1998,#1999),(#2000,#2001),(#2002,#2003),(#2004,#2005),(#2006,#2007),
(#2008,#2009),(#2010,#2011),(#2012,#2013),(#2014,#2015),(#2016,#2017),(#2018,
#2019),(#2020,#2021),(#2022,#2023),(#2024,#2025),(#2026,#2027),(#2028,#2029)),
 .SURF_OF_LINEAR_EXTRUSION.,.T.,.F.,.F.,(1,1,1,1,1,1,1,1,1,1,1,1,1,1,1,
1,1,1,1,1,1,1,1),(2,2),(-1.17809724509617,-0.785398163397448,-0.392699081698725,
0.,0.392699081698724,0.785398163397448,1.17809724509617,1.5707963267949,
1.96349540849362,2.35619449019234,2.74889357189107,3.14159265358979,3.53429173528852,
3.92699081698724,4.31968989868597,4.71238898038469,5.10508806208341,5.49778714378214,
5.89048622548086,6.28318530717959,6.67588438887831,7.06858347057703,7.46128255227576),
(0.,1.),.UNSPECIFIED.);
#16=B_SPLINE_SURFACE_WITH_KNOTS('',3,1,((#2030,#2031),(#2032,#2033),(#2034,
#2035),(#2036,#2037),(#2038,#2039),(#2040,#2041),(#2042,#2043),(#2044,#2045),
(#2046,#2047),(#2048,#2049),(#2050,#2051)),.SURF_OF_LINEAR_EXTRUSION.,.T.,
 .F.,.F.,(1,1,1,1,1,1,1,1,1,1,1,1,1,1,1),(2,2),(-2.35619449019234,-1.5707963267949,
-0.785398163397448,0.,0.785398163397448,1.5707963267949,2.35619449019234,
3.14159265358979,3.92699081698724,4.71238898038469,5.49778714378214,6.28318530717959,
7.06858347057703,7.85398163397448,8.63937979737193),(0.,1.),
 .UNSPECIFIED.);
#17=B_SPLINE_SURFACE_WITH_KNOTS('',3,1,((#2052,#2053),(#2054,#2055),(#2056,
#2057),(#2058,#2059),(#2060,#2061),(#2062,#2063),(#2064,#2065),(#2066,#2067),
(#2068,#2069),(#2070,#2071),(#2072,#2073)),.SURF_OF_LINEAR_EXTRUSION.,.T.,
 .F.,.F.,(1,1,1,1,1,1,1,1,1,1,1,1,1,1,1),(2,2),(-2.35619449019234,-1.5707963267949,
-0.785398163397448,0.,0.785398163397448,1.5707963267949,2.35619449019234,
3.14159265358979,3.92699081698724,4.71238898038469,5.49778714378214,6.28318530717959,
7.06858347057703,7.85398163397448,8.63937979737193),(0.,1.),
 .UNSPECIFIED.);
#18=CYLINDRICAL_SURFACE('',#1277,13.25);
#19=CIRCLE('',#1236,13.25);
#20=CIRCLE('',#1244,13.25);
#21=ELLIPSE('',#1230,3.,1.);
#22=ELLIPSE('',#1231,3.,1.);
#23=ELLIPSE('',#1232,11.,2.);
#24=ELLIPSE('',#1233,13.,2.);
#25=ELLIPSE('',#1234,13.,2.);
#26=ELLIPSE('',#1235,11.,2.);
#27=ELLIPSE('',#1238,3.,1.);
#28=ELLIPSE('',#1239,3.,1.);
#29=ELLIPSE('',#1240,11.,2.);
#30=ELLIPSE('',#1241,13.,2.);
#31=ELLIPSE('',#1242,13.,2.);
#32=ELLIPSE('',#1243,11.,2.);
#33=ORIENTED_EDGE('',*,*,#349,.F.);
#34=ORIENTED_EDGE('',*,*,#350,.F.);
#35=ORIENTED_EDGE('',*,*,#351,.T.);
#36=ORIENTED_EDGE('',*,*,#352,.T.);
#37=ORIENTED_EDGE('',*,*,#353,.T.);
#38=ORIENTED_EDGE('',*,*,#354,.F.);
#39=ORIENTED_EDGE('',*,*,#355,.F.);
#40=ORIENTED_EDGE('',*,*,#350,.T.);
#41=ORIENTED_EDGE('',*,*,#356,.T.);
#42=ORIENTED_EDGE('',*,*,#357,.F.);
#43=ORIENTED_EDGE('',*,*,#358,.F.);
#44=ORIENTED_EDGE('',*,*,#354,.T.);
#45=ORIENTED_EDGE('',*,*,#359,.F.);
#46=ORIENTED_EDGE('',*,*,#352,.F.);
#47=ORIENTED_EDGE('',*,*,#360,.T.);
#48=ORIENTED_EDGE('',*,*,#357,.T.);
#49=ORIENTED_EDGE('',*,*,#361,.F.);
#50=ORIENTED_EDGE('',*,*,#362,.F.);
#51=ORIENTED_EDGE('',*,*,#363,.T.);
#52=ORIENTED_EDGE('',*,*,#364,.T.);
#53=ORIENTED_EDGE('',*,*,#365,.T.);
#54=ORIENTED_EDGE('',*,*,#366,.T.);
#55=ORIENTED_EDGE('',*,*,#367,.T.);
#56=ORIENTED_EDGE('',*,*,#368,.T.);
#57=ORIENTED_EDGE('',*,*,#369,.T.);
#58=ORIENTED_EDGE('',*,*,#370,.T.);
#59=ORIENTED_EDGE('',*,*,#371,.F.);
#60=ORIENTED_EDGE('',*,*,#372,.F.);
#61=ORIENTED_EDGE('',*,*,#373,.T.);
#62=ORIENTED_EDGE('',*,*,#374,.T.);
#63=ORIENTED_EDGE('',*,*,#375,.F.);
#64=ORIENTED_EDGE('',*,*,#376,.F.);
#65=ORIENTED_EDGE('',*,*,#377,.T.);
#66=ORIENTED_EDGE('',*,*,#378,.T.);
#67=ORIENTED_EDGE('',*,*,#379,.T.);
#68=ORIENTED_EDGE('',*,*,#380,.F.);
#69=ORIENTED_EDGE('',*,*,#381,.F.);
#70=ORIENTED_EDGE('',*,*,#382,.T.);
#71=ORIENTED_EDGE('',*,*,#383,.T.);
#72=ORIENTED_EDGE('',*,*,#384,.F.);
#73=ORIENTED_EDGE('',*,*,#385,.F.);
#74=ORIENTED_EDGE('',*,*,#386,.T.);
#75=ORIENTED_EDGE('',*,*,#387,.T.);
#76=ORIENTED_EDGE('',*,*,#388,.F.);
#77=ORIENTED_EDGE('',*,*,#389,.F.);
#78=ORIENTED_EDGE('',*,*,#390,.T.);
#79=ORIENTED_EDGE('',*,*,#391,.T.);
#80=ORIENTED_EDGE('',*,*,#392,.F.);
#81=ORIENTED_EDGE('',*,*,#393,.F.);
#82=ORIENTED_EDGE('',*,*,#394,.T.);
#83=ORIENTED_EDGE('',*,*,#395,.T.);
#84=ORIENTED_EDGE('',*,*,#396,.F.);
#85=ORIENTED_EDGE('',*,*,#397,.F.);
#86=ORIENTED_EDGE('',*,*,#398,.T.);
#87=ORIENTED_EDGE('',*,*,#399,.T.);
#88=ORIENTED_EDGE('',*,*,#400,.F.);
#89=ORIENTED_EDGE('',*,*,#401,.F.);
#90=ORIENTED_EDGE('',*,*,#402,.T.);
#91=ORIENTED_EDGE('',*,*,#403,.T.);
#92=ORIENTED_EDGE('',*,*,#404,.F.);
#93=ORIENTED_EDGE('',*,*,#405,.F.);
#94=ORIENTED_EDGE('',*,*,#406,.T.);
#95=ORIENTED_EDGE('',*,*,#407,.T.);
#96=ORIENTED_EDGE('',*,*,#408,.F.);
#97=ORIENTED_EDGE('',*,*,#409,.F.);
#98=ORIENTED_EDGE('',*,*,#410,.T.);
#99=ORIENTED_EDGE('',*,*,#411,.T.);
#100=ORIENTED_EDGE('',*,*,#351,.F.);
#101=ORIENTED_EDGE('',*,*,#355,.T.);
#102=ORIENTED_EDGE('',*,*,#358,.T.);
#103=ORIENTED_EDGE('',*,*,#360,.F.);
#104=ORIENTED_EDGE('',*,*,#412,.F.);
#105=ORIENTED_EDGE('',*,*,#413,.F.);
#106=ORIENTED_EDGE('',*,*,#414,.T.);
#107=ORIENTED_EDGE('',*,*,#415,.T.);
#108=ORIENTED_EDGE('',*,*,#416,.T.);
#109=ORIENTED_EDGE('',*,*,#417,.T.);
#110=ORIENTED_EDGE('',*,*,#418,.T.);
#111=ORIENTED_EDGE('',*,*,#419,.T.);
#112=ORIENTED_EDGE('',*,*,#420,.T.);
#113=ORIENTED_EDGE('',*,*,#421,.T.);
#114=ORIENTED_EDGE('',*,*,#422,.F.);
#115=ORIENTED_EDGE('',*,*,#423,.F.);
#116=ORIENTED_EDGE('',*,*,#424,.T.);
#117=ORIENTED_EDGE('',*,*,#425,.T.);
#118=ORIENTED_EDGE('',*,*,#426,.F.);
#119=ORIENTED_EDGE('',*,*,#427,.F.);
#120=ORIENTED_EDGE('',*,*,#428,.T.);
#121=ORIENTED_EDGE('',*,*,#429,.T.);
#122=ORIENTED_EDGE('',*,*,#430,.T.);
#123=ORIENTED_EDGE('',*,*,#431,.F.);
#124=ORIENTED_EDGE('',*,*,#432,.F.);
#125=ORIENTED_EDGE('',*,*,#433,.T.);
#126=ORIENTED_EDGE('',*,*,#434,.T.);
#127=ORIENTED_EDGE('',*,*,#435,.F.);
#128=ORIENTED_EDGE('',*,*,#436,.F.);
#129=ORIENTED_EDGE('',*,*,#437,.T.);
#130=ORIENTED_EDGE('',*,*,#438,.T.);
#131=ORIENTED_EDGE('',*,*,#439,.F.);
#132=ORIENTED_EDGE('',*,*,#440,.F.);
#133=ORIENTED_EDGE('',*,*,#441,.T.);
#134=ORIENTED_EDGE('',*,*,#442,.T.);
#135=ORIENTED_EDGE('',*,*,#443,.F.);
#136=ORIENTED_EDGE('',*,*,#444,.F.);
#137=ORIENTED_EDGE('',*,*,#445,.T.);
#138=ORIENTED_EDGE('',*,*,#446,.T.);
#139=ORIENTED_EDGE('',*,*,#447,.F.);
#140=ORIENTED_EDGE('',*,*,#448,.F.);
#141=ORIENTED_EDGE('',*,*,#449,.T.);
#142=ORIENTED_EDGE('',*,*,#450,.T.);
#143=ORIENTED_EDGE('',*,*,#451,.F.);
#144=ORIENTED_EDGE('',*,*,#452,.F.);
#145=ORIENTED_EDGE('',*,*,#453,.T.);
#146=ORIENTED_EDGE('',*,*,#454,.T.);
#147=ORIENTED_EDGE('',*,*,#455,.F.);
#148=ORIENTED_EDGE('',*,*,#456,.F.);
#149=ORIENTED_EDGE('',*,*,#457,.T.);
#150=ORIENTED_EDGE('',*,*,#458,.T.);
#151=ORIENTED_EDGE('',*,*,#459,.F.);
#152=ORIENTED_EDGE('',*,*,#460,.F.);
#153=ORIENTED_EDGE('',*,*,#461,.T.);
#154=ORIENTED_EDGE('',*,*,#462,.T.);
#155=ORIENTED_EDGE('',*,*,#349,.T.);
#156=ORIENTED_EDGE('',*,*,#359,.T.);
#157=ORIENTED_EDGE('',*,*,#356,.F.);
#158=ORIENTED_EDGE('',*,*,#353,.F.);
#159=ORIENTED_EDGE('',*,*,#408,.T.);
#160=ORIENTED_EDGE('',*,*,#463,.T.);
#161=ORIENTED_EDGE('',*,*,#460,.T.);
#162=ORIENTED_EDGE('',*,*,#464,.F.);
#163=ORIENTED_EDGE('',*,*,#465,.T.);
#164=ORIENTED_EDGE('',*,*,#461,.F.);
#165=ORIENTED_EDGE('',*,*,#463,.F.);
#166=ORIENTED_EDGE('',*,*,#411,.F.);
#167=ORIENTED_EDGE('',*,*,#466,.T.);
#168=ORIENTED_EDGE('',*,*,#462,.F.);
#169=ORIENTED_EDGE('',*,*,#465,.F.);
#170=ORIENTED_EDGE('',*,*,#410,.F.);
#171=ORIENTED_EDGE('',*,*,#409,.T.);
#172=ORIENTED_EDGE('',*,*,#464,.T.);
#173=ORIENTED_EDGE('',*,*,#459,.T.);
#174=ORIENTED_EDGE('',*,*,#466,.F.);
#175=ORIENTED_EDGE('',*,*,#404,.T.);
#176=ORIENTED_EDGE('',*,*,#467,.T.);
#177=ORIENTED_EDGE('',*,*,#456,.T.);
#178=ORIENTED_EDGE('',*,*,#468,.F.);
#179=ORIENTED_EDGE('',*,*,#469,.T.);
#180=ORIENTED_EDGE('',*,*,#457,.F.);
#181=ORIENTED_EDGE('',*,*,#467,.F.);
#182=ORIENTED_EDGE('',*,*,#407,.F.);
#183=ORIENTED_EDGE('',*,*,#470,.T.);
#184=ORIENTED_EDGE('',*,*,#458,.F.);
#185=ORIENTED_EDGE('',*,*,#469,.F.);
#186=ORIENTED_EDGE('',*,*,#406,.F.);
#187=ORIENTED_EDGE('',*,*,#405,.T.);
#188=ORIENTED_EDGE('',*,*,#468,.T.);
#189=ORIENTED_EDGE('',*,*,#455,.T.);
#190=ORIENTED_EDGE('',*,*,#470,.F.);
#191=ORIENTED_EDGE('',*,*,#400,.T.);
#192=ORIENTED_EDGE('',*,*,#471,.T.);
#193=ORIENTED_EDGE('',*,*,#452,.T.);
#194=ORIENTED_EDGE('',*,*,#472,.F.);
#195=ORIENTED_EDGE('',*,*,#473,.T.);
#196=ORIENTED_EDGE('',*,*,#453,.F.);
#197=ORIENTED_EDGE('',*,*,#471,.F.);
#198=ORIENTED_EDGE('',*,*,#403,.F.);
#199=ORIENTED_EDGE('',*,*,#474,.T.);
#200=ORIENTED_EDGE('',*,*,#454,.F.);
#201=ORIENTED_EDGE('',*,*,#473,.F.);
#202=ORIENTED_EDGE('',*,*,#402,.F.);
#203=ORIENTED_EDGE('',*,*,#401,.T.);
#204=ORIENTED_EDGE('',*,*,#472,.T.);
#205=ORIENTED_EDGE('',*,*,#451,.T.);
#206=ORIENTED_EDGE('',*,*,#474,.F.);
#207=ORIENTED_EDGE('',*,*,#396,.T.);
#208=ORIENTED_EDGE('',*,*,#475,.T.);
#209=ORIENTED_EDGE('',*,*,#448,.T.);
#210=ORIENTED_EDGE('',*,*,#476,.F.);
#211=ORIENTED_EDGE('',*,*,#477,.T.);
#212=ORIENTED_EDGE('',*,*,#449,.F.);
#213=ORIENTED_EDGE('',*,*,#475,.F.);
#214=ORIENTED_EDGE('',*,*,#399,.F.);
#215=ORIENTED_EDGE('',*,*,#478,.T.);
#216=ORIENTED_EDGE('',*,*,#450,.F.);
#217=ORIENTED_EDGE('',*,*,#477,.F.);
#218=ORIENTED_EDGE('',*,*,#398,.F.);
#219=ORIENTED_EDGE('',*,*,#397,.T.);
#220=ORIENTED_EDGE('',*,*,#476,.T.);
#221=ORIENTED_EDGE('',*,*,#447,.T.);
#222=ORIENTED_EDGE('',*,*,#478,.F.);
#223=ORIENTED_EDGE('',*,*,#392,.T.);
#224=ORIENTED_EDGE('',*,*,#479,.T.);
#225=ORIENTED_EDGE('',*,*,#444,.T.);
#226=ORIENTED_EDGE('',*,*,#480,.F.);
#227=ORIENTED_EDGE('',*,*,#481,.T.);
#228=ORIENTED_EDGE('',*,*,#445,.F.);
#229=ORIENTED_EDGE('',*,*,#479,.F.);
#230=ORIENTED_EDGE('',*,*,#395,.F.);
#231=ORIENTED_EDGE('',*,*,#482,.T.);
#232=ORIENTED_EDGE('',*,*,#446,.F.);
#233=ORIENTED_EDGE('',*,*,#481,.F.);
#234=ORIENTED_EDGE('',*,*,#394,.F.);
#235=ORIENTED_EDGE('',*,*,#393,.T.);
#236=ORIENTED_EDGE('',*,*,#480,.T.);
#237=ORIENTED_EDGE('',*,*,#443,.T.);
#238=ORIENTED_EDGE('',*,*,#482,.F.);
#239=ORIENTED_EDGE('',*,*,#388,.T.);
#240=ORIENTED_EDGE('',*,*,#483,.T.);
#241=ORIENTED_EDGE('',*,*,#440,.T.);
#242=ORIENTED_EDGE('',*,*,#484,.F.);
#243=ORIENTED_EDGE('',*,*,#485,.T.);
#244=ORIENTED_EDGE('',*,*,#441,.F.);
#245=ORIENTED_EDGE('',*,*,#483,.F.);
#246=ORIENTED_EDGE('',*,*,#391,.F.);
#247=ORIENTED_EDGE('',*,*,#486,.T.);
#248=ORIENTED_EDGE('',*,*,#442,.F.);
#249=ORIENTED_EDGE('',*,*,#485,.F.);
#250=ORIENTED_EDGE('',*,*,#390,.F.);
#251=ORIENTED_EDGE('',*,*,#389,.T.);
#252=ORIENTED_EDGE('',*,*,#484,.T.);
#253=ORIENTED_EDGE('',*,*,#439,.T.);
#254=ORIENTED_EDGE('',*,*,#486,.F.);
#255=ORIENTED_EDGE('',*,*,#384,.T.);
#256=ORIENTED_EDGE('',*,*,#487,.T.);
#257=ORIENTED_EDGE('',*,*,#436,.T.);
#258=ORIENTED_EDGE('',*,*,#488,.F.);
#259=ORIENTED_EDGE('',*,*,#489,.T.);
#260=ORIENTED_EDGE('',*,*,#437,.F.);
#261=ORIENTED_EDGE('',*,*,#487,.F.);
#262=ORIENTED_EDGE('',*,*,#387,.F.);
#263=ORIENTED_EDGE('',*,*,#490,.T.);
#264=ORIENTED_EDGE('',*,*,#438,.F.);
#265=ORIENTED_EDGE('',*,*,#489,.F.);
#266=ORIENTED_EDGE('',*,*,#386,.F.);
#267=ORIENTED_EDGE('',*,*,#385,.T.);
#268=ORIENTED_EDGE('',*,*,#488,.T.);
#269=ORIENTED_EDGE('',*,*,#435,.T.);
#270=ORIENTED_EDGE('',*,*,#490,.F.);
#271=ORIENTED_EDGE('',*,*,#380,.T.);
#272=ORIENTED_EDGE('',*,*,#491,.T.);
#273=ORIENTED_EDGE('',*,*,#432,.T.);
#274=ORIENTED_EDGE('',*,*,#492,.F.);
#275=ORIENTED_EDGE('',*,*,#493,.T.);
#276=ORIENTED_EDGE('',*,*,#433,.F.);
#277=ORIENTED_EDGE('',*,*,#491,.F.);
#278=ORIENTED_EDGE('',*,*,#383,.F.);
#279=ORIENTED_EDGE('',*,*,#494,.T.);
#280=ORIENTED_EDGE('',*,*,#434,.F.);
#281=ORIENTED_EDGE('',*,*,#493,.F.);
#282=ORIENTED_EDGE('',*,*,#382,.F.);
#283=ORIENTED_EDGE('',*,*,#381,.T.);
#284=ORIENTED_EDGE('',*,*,#492,.T.);
#285=ORIENTED_EDGE('',*,*,#431,.T.);
#286=ORIENTED_EDGE('',*,*,#494,.F.);
#287=ORIENTED_EDGE('',*,*,#379,.F.);
#288=ORIENTED_EDGE('',*,*,#430,.F.);
#289=ORIENTED_EDGE('',*,*,#375,.T.);
#290=ORIENTED_EDGE('',*,*,#495,.T.);
#291=ORIENTED_EDGE('',*,*,#427,.T.);
#292=ORIENTED_EDGE('',*,*,#496,.F.);
#293=ORIENTED_EDGE('',*,*,#497,.T.);
#294=ORIENTED_EDGE('',*,*,#428,.F.);
#295=ORIENTED_EDGE('',*,*,#495,.F.);
#296=ORIENTED_EDGE('',*,*,#378,.F.);
#297=ORIENTED_EDGE('',*,*,#498,.T.);
#298=ORIENTED_EDGE('',*,*,#429,.F.);
#299=ORIENTED_EDGE('',*,*,#497,.F.);
#300=ORIENTED_EDGE('',*,*,#377,.F.);
#301=ORIENTED_EDGE('',*,*,#376,.T.);
#302=ORIENTED_EDGE('',*,*,#496,.T.);
#303=ORIENTED_EDGE('',*,*,#426,.T.);
#304=ORIENTED_EDGE('',*,*,#498,.F.);
#305=ORIENTED_EDGE('',*,*,#371,.T.);
#306=ORIENTED_EDGE('',*,*,#499,.T.);
#307=ORIENTED_EDGE('',*,*,#423,.T.);
#308=ORIENTED_EDGE('',*,*,#500,.F.);
#309=ORIENTED_EDGE('',*,*,#501,.T.);
#310=ORIENTED_EDGE('',*,*,#424,.F.);
#311=ORIENTED_EDGE('',*,*,#499,.F.);
#312=ORIENTED_EDGE('',*,*,#374,.F.);
#313=ORIENTED_EDGE('',*,*,#502,.T.);
#314=ORIENTED_EDGE('',*,*,#425,.F.);
#315=ORIENTED_EDGE('',*,*,#501,.F.);
#316=ORIENTED_EDGE('',*,*,#373,.F.);
#317=ORIENTED_EDGE('',*,*,#372,.T.);
#318=ORIENTED_EDGE('',*,*,#500,.T.);
#319=ORIENTED_EDGE('',*,*,#422,.T.);
#320=ORIENTED_EDGE('',*,*,#502,.F.);
#321=ORIENTED_EDGE('',*,*,#370,.F.);
#322=ORIENTED_EDGE('',*,*,#421,.F.);
#323=ORIENTED_EDGE('',*,*,#369,.F.);
#324=ORIENTED_EDGE('',*,*,#420,.F.);
#325=ORIENTED_EDGE('',*,*,#368,.F.);
#326=ORIENTED_EDGE('',*,*,#419,.F.);
#327=ORIENTED_EDGE('',*,*,#367,.F.);
#328=ORIENTED_EDGE('',*,*,#418,.F.);
#329=ORIENTED_EDGE('',*,*,#366,.F.);
#330=ORIENTED_EDGE('',*,*,#417,.F.);
#331=ORIENTED_EDGE('',*,*,#365,.F.);
#332=ORIENTED_EDGE('',*,*,#416,.F.);
#333=ORIENTED_EDGE('',*,*,#361,.T.);
#334=ORIENTED_EDGE('',*,*,#503,.T.);
#335=ORIENTED_EDGE('',*,*,#413,.T.);
#336=ORIENTED_EDGE('',*,*,#504,.F.);
#337=ORIENTED_EDGE('',*,*,#505,.T.);
#338=ORIENTED_EDGE('',*,*,#414,.F.);
#339=ORIENTED_EDGE('',*,*,#503,.F.);
#340=ORIENTED_EDGE('',*,*,#364,.F.);
#341=ORIENTED_EDGE('',*,*,#506,.T.);
#342=ORIENTED_EDGE('',*,*,#415,.F.);
#343=ORIENTED_EDGE('',*,*,#505,.F.);
#344=ORIENTED_EDGE('',*,*,#363,.F.);
#345=ORIENTED_EDGE('',*,*,#362,.T.);
#346=ORIENTED_EDGE('',*,*,#504,.T.);
#347=ORIENTED_EDGE('',*,*,#412,.T.);
#348=ORIENTED_EDGE('',*,*,#506,.F.);
#349=EDGE_CURVE('',#507,#508,#617,.T.);
#350=EDGE_CURVE('',#509,#507,#618,.T.);
#351=EDGE_CURVE('',#509,#510,#619,.T.);
#352=EDGE_CURVE('',#510,#508,#620,.T.);
#353=EDGE_CURVE('',#507,#511,#621,.T.);
#354=EDGE_CURVE('',#512,#511,#622,.T.);
#355=EDGE_CURVE('',#509,#512,#623,.T.);
#356=EDGE_CURVE('',#511,#513,#624,.T.);
#357=EDGE_CURVE('',#514,#513,#625,.T.);
#358=EDGE_CURVE('',#512,#514,#626,.T.);
#359=EDGE_CURVE('',#508,#513,#627,.T.);
#360=EDGE_CURVE('',#510,#514,#628,.T.);
#361=EDGE_CURVE('',#515,#516,#629,.T.);
#362=EDGE_CURVE('',#517,#515,#630,.T.);
#363=EDGE_CURVE('',#517,#518,#631,.T.);
#364=EDGE_CURVE('',#518,#516,#632,.T.);
#365=EDGE_CURVE('',#519,#519,#21,.F.);
#366=EDGE_CURVE('',#520,#520,#22,.F.);
#367=EDGE_CURVE('',#521,#521,#23,.F.);
#368=EDGE_CURVE('',#522,#522,#24,.F.);
#369=EDGE_CURVE('',#523,#523,#25,.F.);
#370=EDGE_CURVE('',#524,#524,#26,.F.);
#371=EDGE_CURVE('',#525,#526,#633,.T.);
#372=EDGE_CURVE('',#527,#525,#634,.T.);
#373=EDGE_CURVE('',#527,#528,#635,.T.);
#374=EDGE_CURVE('',#528,#526,#636,.T.);
#375=EDGE_CURVE('',#529,#530,#637,.T.);
#376=EDGE_CURVE('',#531,#529,#638,.T.);
#377=EDGE_CURVE('',#531,#532,#639,.T.);
#378=EDGE_CURVE('',#532,#530,#640,.T.);
#379=EDGE_CURVE('',#533,#533,#19,.F.);
#380=EDGE_CURVE('',#534,#535,#641,.T.);
#381=EDGE_CURVE('',#536,#534,#642,.T.);
#382=EDGE_CURVE('',#536,#537,#643,.T.);
#383=EDGE_CURVE('',#537,#535,#644,.T.);
#384=EDGE_CURVE('',#538,#539,#645,.T.);
#385=EDGE_CURVE('',#540,#538,#646,.T.);
#386=EDGE_CURVE('',#540,#541,#647,.T.);
#387=EDGE_CURVE('',#541,#539,#648,.T.);
#388=EDGE_CURVE('',#542,#543,#649,.T.);
#389=EDGE_CURVE('',#544,#542,#650,.T.);
#390=EDGE_CURVE('',#544,#545,#651,.T.);
#391=EDGE_CURVE('',#545,#543,#652,.T.);
#392=EDGE_CURVE('',#546,#547,#653,.T.);
#393=EDGE_CURVE('',#548,#546,#654,.T.);
#394=EDGE_CURVE('',#548,#549,#655,.T.);
#395=EDGE_CURVE('',#549,#547,#656,.T.);
#396=EDGE_CURVE('',#550,#551,#657,.T.);
#397=EDGE_CURVE('',#552,#550,#658,.T.);
#398=EDGE_CURVE('',#552,#553,#659,.T.);
#399=EDGE_CURVE('',#553,#551,#660,.T.);
#400=EDGE_CURVE('',#554,#555,#661,.T.);
#401=EDGE_CURVE('',#556,#554,#662,.T.);
#402=EDGE_CURVE('',#556,#557,#663,.T.);
#403=EDGE_CURVE('',#557,#555,#664,.T.);
#404=EDGE_CURVE('',#558,#559,#665,.T.);
#405=EDGE_CURVE('',#560,#558,#666,.T.);
#406=EDGE_CURVE('',#560,#561,#667,.T.);
#407=EDGE_CURVE('',#561,#559,#668,.T.);
#408=EDGE_CURVE('',#562,#563,#669,.T.);
#409=EDGE_CURVE('',#564,#562,#670,.T.);
#410=EDGE_CURVE('',#564,#565,#671,.T.);
#411=EDGE_CURVE('',#565,#563,#672,.T.);
#412=EDGE_CURVE('',#566,#567,#673,.T.);
#413=EDGE_CURVE('',#568,#566,#674,.T.);
#414=EDGE_CURVE('',#568,#569,#675,.T.);
#415=EDGE_CURVE('',#569,#567,#676,.T.);
#416=EDGE_CURVE('',#570,#570,#27,.T.);
#417=EDGE_CURVE('',#571,#571,#28,.T.);
#418=EDGE_CURVE('',#572,#572,#29,.T.);
#419=EDGE_CURVE('',#573,#573,#30,.T.);
#420=EDGE_CURVE('',#574,#574,#31,.T.);
#421=EDGE_CURVE('',#575,#575,#32,.T.);
#422=EDGE_CURVE('',#576,#577,#677,.T.);
#423=EDGE_CURVE('',#578,#576,#678,.T.);
#424=EDGE_CURVE('',#578,#579,#679,.T.);
#425=EDGE_CURVE('',#579,#577,#680,.T.);
#426=EDGE_CURVE('',#580,#581,#681,.T.);
#427=EDGE_CURVE('',#582,#580,#682,.T.);
#428=EDGE_CURVE('',#582,#583,#683,.T.);
#429=EDGE_CURVE('',#583,#581,#684,.T.);
#430=EDGE_CURVE('',#584,#584,#20,.T.);
#431=EDGE_CURVE('',#585,#586,#685,.T.);
#432=EDGE_CURVE('',#587,#585,#686,.T.);
#433=EDGE_CURVE('',#587,#588,#687,.T.);
#434=EDGE_CURVE('',#588,#586,#688,.T.);
#435=EDGE_CURVE('',#589,#590,#689,.T.);
#436=EDGE_CURVE('',#591,#589,#690,.T.);
#437=EDGE_CURVE('',#591,#592,#691,.T.);
#438=EDGE_CURVE('',#592,#590,#692,.T.);
#439=EDGE_CURVE('',#593,#594,#693,.T.);
#440=EDGE_CURVE('',#595,#593,#694,.T.);
#441=EDGE_CURVE('',#595,#596,#695,.T.);
#442=EDGE_CURVE('',#596,#594,#696,.T.);
#443=EDGE_CURVE('',#597,#598,#697,.T.);
#444=EDGE_CURVE('',#599,#597,#698,.T.);
#445=EDGE_CURVE('',#599,#600,#699,.T.);
#446=EDGE_CURVE('',#600,#598,#700,.T.);
#447=EDGE_CURVE('',#601,#602,#701,.T.);
#448=EDGE_CURVE('',#603,#601,#702,.T.);
#449=EDGE_CURVE('',#603,#604,#703,.T.);
#450=EDGE_CURVE('',#604,#602,#704,.T.);
#451=EDGE_CURVE('',#605,#606,#705,.T.);
#452=EDGE_CURVE('',#607,#605,#706,.T.);
#453=EDGE_CURVE('',#607,#608,#707,.T.);
#454=EDGE_CURVE('',#608,#606,#708,.T.);
#455=EDGE_CURVE('',#609,#610,#709,.T.);
#456=EDGE_CURVE('',#611,#609,#710,.T.);
#457=EDGE_CURVE('',#611,#612,#711,.T.);
#458=EDGE_CURVE('',#612,#610,#712,.T.);
#459=EDGE_CURVE('',#613,#614,#713,.T.);
#460=EDGE_CURVE('',#615,#613,#714,.T.);
#461=EDGE_CURVE('',#615,#616,#715,.T.);
#462=EDGE_CURVE('',#616,#614,#716,.T.);
#463=EDGE_CURVE('',#563,#615,#717,.T.);
#464=EDGE_CURVE('',#562,#613,#718,.T.);
#465=EDGE_CURVE('',#565,#616,#719,.T.);
#466=EDGE_CURVE('',#564,#614,#720,.T.);
#467=EDGE_CURVE('',#559,#611,#721,.T.);
#468=EDGE_CURVE('',#558,#609,#722,.T.);
#469=EDGE_CURVE('',#561,#612,#723,.T.);
#470=EDGE_CURVE('',#560,#610,#724,.T.);
#471=EDGE_CURVE('',#555,#607,#725,.T.);
#472=EDGE_CURVE('',#554,#605,#726,.T.);
#473=EDGE_CURVE('',#557,#608,#727,.T.);
#474=EDGE_CURVE('',#556,#606,#728,.T.);
#475=EDGE_CURVE('',#551,#603,#729,.T.);
#476=EDGE_CURVE('',#550,#601,#730,.T.);
#477=EDGE_CURVE('',#553,#604,#731,.T.);
#478=EDGE_CURVE('',#552,#602,#732,.T.);
#479=EDGE_CURVE('',#547,#599,#733,.T.);
#480=EDGE_CURVE('',#546,#597,#734,.T.);
#481=EDGE_CURVE('',#549,#600,#735,.T.);
#482=EDGE_CURVE('',#548,#598,#736,.T.);
#483=EDGE_CURVE('',#543,#595,#737,.T.);
#484=EDGE_CURVE('',#542,#593,#738,.T.);
#485=EDGE_CURVE('',#545,#596,#739,.T.);
#486=EDGE_CURVE('',#544,#594,#740,.T.);
#487=EDGE_CURVE('',#539,#591,#741,.T.);
#488=EDGE_CURVE('',#538,#589,#742,.T.);
#489=EDGE_CURVE('',#541,#592,#743,.T.);
#490=EDGE_CURVE('',#540,#590,#744,.T.);
#491=EDGE_CURVE('',#535,#587,#745,.T.);
#492=EDGE_CURVE('',#534,#585,#746,.T.);
#493=EDGE_CURVE('',#537,#588,#747,.T.);
#494=EDGE_CURVE('',#536,#586,#748,.T.);
#495=EDGE_CURVE('',#530,#582,#749,.T.);
#496=EDGE_CURVE('',#529,#580,#750,.T.);
#497=EDGE_CURVE('',#532,#583,#751,.T.);
#498=EDGE_CURVE('',#531,#581,#752,.T.);
#499=EDGE_CURVE('',#526,#578,#753,.T.);
#500=EDGE_CURVE('',#525,#576,#754,.T.);
#501=EDGE_CURVE('',#528,#579,#755,.T.);
#502=EDGE_CURVE('',#527,#577,#756,.T.);
#503=EDGE_CURVE('',#516,#568,#757,.T.);
#504=EDGE_CURVE('',#515,#566,#758,.T.);
#505=EDGE_CURVE('',#518,#569,#759,.T.);
#506=EDGE_CURVE('',#517,#567,#760,.T.);
#507=VERTEX_POINT('',#1569);
#508=VERTEX_POINT('',#1570);
#509=VERTEX_POINT('',#1572);
#510=VERTEX_POINT('',#1574);
#511=VERTEX_POINT('',#1578);
#512=VERTEX_POINT('',#1580);
#513=VERTEX_POINT('',#1584);
#514=VERTEX_POINT('',#1586);
#515=VERTEX_POINT('',#1593);
#516=VERTEX_POINT('',#1594);
#517=VERTEX_POINT('',#1596);
#518=VERTEX_POINT('',#1598);
#519=VERTEX_POINT('',#1601);
#520=VERTEX_POINT('',#1603);
#521=VERTEX_POINT('',#1605);
#522=VERTEX_POINT('',#1607);
#523=VERTEX_POINT('',#1609);
#524=VERTEX_POINT('',#1611);
#525=VERTEX_POINT('',#1613);
#526=VERTEX_POINT('',#1614);
#527=VERTEX_POINT('',#1616);
#528=VERTEX_POINT('',#1618);
#529=VERTEX_POINT('',#1621);
#530=VERTEX_POINT('',#1622);
#531=VERTEX_POINT('',#1624);
#532=VERTEX_POINT('',#1626);
#533=VERTEX_POINT('',#1629);
#534=VERTEX_POINT('',#1631);
#535=VERTEX_POINT('',#1632);
#536=VERTEX_POINT('',#1634);
#537=VERTEX_POINT('',#1636);
#538=VERTEX_POINT('',#1639);
#539=VERTEX_POINT('',#1640);
#540=VERTEX_POINT('',#1642);
#541=VERTEX_POINT('',#1644);
#542=VERTEX_POINT('',#1647);
#543=VERTEX_POINT('',#1648);
#544=VERTEX_POINT('',#1650);
#545=VERTEX_POINT('',#1652);
#546=VERTEX_POINT('',#1655);
#547=VERTEX_POINT('',#1656);
#548=VERTEX_POINT('',#1658);
#549=VERTEX_POINT('',#1660);
#550=VERTEX_POINT('',#1663);
#551=VERTEX_POINT('',#1664);
#552=VERTEX_POINT('',#1666);
#553=VERTEX_POINT('',#1668);
#554=VERTEX_POINT('',#1671);
#555=VERTEX_POINT('',#1672);
#556=VERTEX_POINT('',#1674);
#557=VERTEX_POINT('',#1676);
#558=VERTEX_POINT('',#1679);
#559=VERTEX_POINT('',#1680);
#560=VERTEX_POINT('',#1682);
#561=VERTEX_POINT('',#1684);
#562=VERTEX_POINT('',#1687);
#563=VERTEX_POINT('',#1688);
#564=VERTEX_POINT('',#1690);
#565=VERTEX_POINT('',#1692);
#566=VERTEX_POINT('',#1696);
#567=VERTEX_POINT('',#1697);
#568=VERTEX_POINT('',#1699);
#569=VERTEX_POINT('',#1701);
#570=VERTEX_POINT('',#1704);
#571=VERTEX_POINT('',#1706);
#572=VERTEX_POINT('',#1708);
#573=VERTEX_POINT('',#1710);
#574=VERTEX_POINT('',#1712);
#575=VERTEX_POINT('',#1714);
#576=VERTEX_POINT('',#1716);
#577=VERTEX_POINT('',#1717);
#578=VERTEX_POINT('',#1719);
#579=VERTEX_POINT('',#1721);
#580=VERTEX_POINT('',#1724);
#581=VERTEX_POINT('',#1725);
#582=VERTEX_POINT('',#1727);
#583=VERTEX_POINT('',#1729);
#584=VERTEX_POINT('',#1732);
#585=VERTEX_POINT('',#1734);
#586=VERTEX_POINT('',#1735);
#587=VERTEX_POINT('',#1737);
#588=VERTEX_POINT('',#1739);
#589=VERTEX_POINT('',#1742);
#590=VERTEX_POINT('',#1743);
#591=VERTEX_POINT('',#1745);
#592=VERTEX_POINT('',#1747);
#593=VERTEX_POINT('',#1750);
#594=VERTEX_POINT('',#1751);
#595=VERTEX_POINT('',#1753);
#596=VERTEX_POINT('',#1755);
#597=VERTEX_POINT('',#1758);
#598=VERTEX_POINT('',#1759);
#599=VERTEX_POINT('',#1761);
#600=VERTEX_POINT('',#1763);
#601=VERTEX_POINT('',#1766);
#602=VERTEX_POINT('',#1767);
#603=VERTEX_POINT('',#1769);
#604=VERTEX_POINT('',#1771);
#605=VERTEX_POINT('',#1774);
#606=VERTEX_POINT('',#1775);
#607=VERTEX_POINT('',#1777);
#608=VERTEX_POINT('',#1779);
#609=VERTEX_POINT('',#1782);
#610=VERTEX_POINT('',#1783);
#611=VERTEX_POINT('',#1785);
#612=VERTEX_POINT('',#1787);
#613=VERTEX_POINT('',#1790);
#614=VERTEX_POINT('',#1791);
#615=VERTEX_POINT('',#1793);
#616=VERTEX_POINT('',#1795);
#617=LINE('',#1568,#761);
#618=LINE('',#1571,#762);
#619=LINE('',#1573,#763);
#620=LINE('',#1575,#764);
#621=LINE('',#1577,#765);
#622=LINE('',#1579,#766);
#623=LINE('',#1581,#767);
#624=LINE('',#1583,#768);
#625=LINE('',#1585,#769);
#626=LINE('',#1587,#770);
#627=LINE('',#1589,#771);
#628=LINE('',#1590,#772);
#629=LINE('',#1592,#773);
#630=LINE('',#1595,#774);
#631=LINE('',#1597,#775);
#632=LINE('',#1599,#776);
#633=LINE('',#1612,#777);
#634=LINE('',#1615,#778);
#635=LINE('',#1617,#779);
#636=LINE('',#1619,#780);
#637=LINE('',#1620,#781);
#638=LINE('',#1623,#782);
#639=LINE('',#1625,#783);
#640=LINE('',#1627,#784);
#641=LINE('',#1630,#785);
#642=LINE('',#1633,#786);
#643=LINE('',#1635,#787);
#644=LINE('',#1637,#788);
#645=LINE('',#1638,#789);
#646=LINE('',#1641,#790);
#647=LINE('',#1643,#791);
#648=LINE('',#1645,#792);
#649=LINE('',#1646,#793);
#650=LINE('',#1649,#794);
#651=LINE('',#1651,#795);
#652=LINE('',#1653,#796);
#653=LINE('',#1654,#797);
#654=LINE('',#1657,#798);
#655=LINE('',#1659,#799);
#656=LINE('',#1661,#800);
#657=LINE('',#1662,#801);
#658=LINE('',#1665,#802);
#659=LINE('',#1667,#803);
#660=LINE('',#1669,#804);
#661=LINE('',#1670,#805);
#662=LINE('',#1673,#806);
#663=LINE('',#1675,#807);
#664=LINE('',#1677,#808);
#665=LINE('',#1678,#809);
#666=LINE('',#1681,#810);
#667=LINE('',#1683,#811);
#668=LINE('',#1685,#812);
#669=LINE('',#1686,#813);
#670=LINE('',#1689,#814);
#671=LINE('',#1691,#815);
#672=LINE('',#1693,#816);
#673=LINE('',#1695,#817);
#674=LINE('',#1698,#818);
#675=LINE('',#1700,#819);
#676=LINE('',#1702,#820);
#677=LINE('',#1715,#821);
#678=LINE('',#1718,#822);
#679=LINE('',#1720,#823);
#680=LINE('',#1722,#824);
#681=LINE('',#1723,#825);
#682=LINE('',#1726,#826);
#683=LINE('',#1728,#827);
#684=LINE('',#1730,#828);
#685=LINE('',#1733,#829);
#686=LINE('',#1736,#830);
#687=LINE('',#1738,#831);
#688=LINE('',#1740,#832);
#689=LINE('',#1741,#833);
#690=LINE('',#1744,#834);
#691=LINE('',#1746,#835);
#692=LINE('',#1748,#836);
#693=LINE('',#1749,#837);
#694=LINE('',#1752,#838);
#695=LINE('',#1754,#839);
#696=LINE('',#1756,#840);
#697=LINE('',#1757,#841);
#698=LINE('',#1760,#842);
#699=LINE('',#1762,#843);
#700=LINE('',#1764,#844);
#701=LINE('',#1765,#845);
#702=LINE('',#1768,#846);
#703=LINE('',#1770,#847);
#704=LINE('',#1772,#848);
#705=LINE('',#1773,#849);
#706=LINE('',#1776,#850);
#707=LINE('',#1778,#851);
#708=LINE('',#1780,#852);
#709=LINE('',#1781,#853);
#710=LINE('',#1784,#854);
#711=LINE('',#1786,#855);
#712=LINE('',#1788,#856);
#713=LINE('',#1789,#857);
#714=LINE('',#1792,#858);
#715=LINE('',#1794,#859);
#716=LINE('',#1796,#860);
#717=LINE('',#1798,#861);
#718=LINE('',#1799,#862);
#719=LINE('',#1801,#863);
#720=LINE('',#1803,#864);
#721=LINE('',#1806,#865);
#722=LINE('',#1807,#866);
#723=LINE('',#1809,#867);
#724=LINE('',#1811,#868);
#725=LINE('',#1814,#869);
#726=LINE('',#1815,#870);
#727=LINE('',#1817,#871);
#728=LINE('',#1819,#872);
#729=LINE('',#1822,#873);
#730=LINE('',#1823,#874);
#731=LINE('',#1825,#875);
#732=LINE('',#1827,#876);
#733=LINE('',#1830,#877);
#734=LINE('',#1831,#878);
#735=LINE('',#1833,#879);
#736=LINE('',#1835,#880);
#737=LINE('',#1838,#881);
#738=LINE('',#1839,#882);
#739=LINE('',#1841,#883);
#740=LINE('',#1843,#884);
#741=LINE('',#1846,#885);
#742=LINE('',#1847,#886);
#743=LINE('',#1849,#887);
#744=LINE('',#1851,#888);
#745=LINE('',#1854,#889);
#746=LINE('',#1855,#890);
#747=LINE('',#1857,#891);
#748=LINE('',#1859,#892);
#749=LINE('',#1863,#893);
#750=LINE('',#1864,#894);
#751=LINE('',#1866,#895);
#752=LINE('',#1868,#896);
#753=LINE('',#1871,#897);
#754=LINE('',#1872,#898);
#755=LINE('',#1874,#899);
#756=LINE('',#1876,#900);
#757=LINE('',#2075,#901);
#758=LINE('',#2076,#902);
#759=LINE('',#2078,#903);
#760=LINE('',#2080,#904);
#761=VECTOR('',#1294,1000.);
#762=VECTOR('',#1295,1000.);
#763=VECTOR('',#1296,1000.);
#764=VECTOR('',#1297,1000.);
#765=VECTOR('',#1300,1000.);
#766=VECTOR('',#1301,1000.);
#767=VECTOR('',#1302,1000.);
#768=VECTOR('',#1305,1000.);
#769=VECTOR('',#1306,1000.);
#770=VECTOR('',#1307,1000.);
#771=VECTOR('',#1310,1000.);
#772=VECTOR('',#1311,1000.);
#773=VECTOR('',#1314,1000.);
#774=VECTOR('',#1315,1000.);
#775=VECTOR('',#1316,1000.);
#776=VECTOR('',#1317,1000.);
#777=VECTOR('',#1330,1000.);
#778=VECTOR('',#1331,1000.);
#779=VECTOR('',#1332,1000.);
#780=VECTOR('',#1333,1000.);
#781=VECTOR('',#1334,1000.);
#782=VECTOR('',#1335,1000.);
#783=VECTOR('',#1336,1000.);
#784=VECTOR('',#1337,1000.);
#785=VECTOR('',#1340,1000.);
#786=VECTOR('',#1341,1000.);
#787=VECTOR('',#1342,1000.);
#788=VECTOR('',#1343,1000.);
#789=VECTOR('',#1344,1000.);
#790=VECTOR('',#1345,1000.);
#791=VECTOR('',#1346,1000.);
#792=VECTOR('',#1347,1000.);
#793=VECTOR('',#1348,1000.);
#794=VECTOR('',#1349,1000.);
#795=VECTOR('',#1350,1000.);
#796=VECTOR('',#1351,1000.);
#797=VECTOR('',#1352,1000.);
#798=VECTOR('',#1353,1000.);
#799=VECTOR('',#1354,1000.);
#800=VECTOR('',#1355,1000.);
#801=VECTOR('',#1356,1000.);
#802=VECTOR('',#1357,1000.);
#803=VECTOR('',#1358,1000.);
#804=VECTOR('',#1359,1000.);
#805=VECTOR('',#1360,1000.);
#806=VECTOR('',#1361,1000.);
#807=VECTOR('',#1362,1000.);
#808=VECTOR('',#1363,1000.);
#809=VECTOR('',#1364,1000.);
#810=VECTOR('',#1365,1000.);
#811=VECTOR('',#1366,1000.);
#812=VECTOR('',#1367,1000.);
#813=VECTOR('',#1368,1000.);
#814=VECTOR('',#1369,1000.);
#815=VECTOR('',#1370,1000.);
#816=VECTOR('',#1371,1000.);
#817=VECTOR('',#1374,1000.);
#818=VECTOR('',#1375,1000.);
#819=VECTOR('',#1376,1000.);
#820=VECTOR('',#1377,1000.);
#821=VECTOR('',#1390,1000.);
#822=VECTOR('',#1391,1000.);
#823=VECTOR('',#1392,1000.);
#824=VECTOR('',#1393,1000.);
#825=VECTOR('',#1394,1000.);
#826=VECTOR('',#1395,1000.);
#827=VECTOR('',#1396,1000.);
#828=VECTOR('',#1397,1000.);
#829=VECTOR('',#1400,1000.);
#830=VECTOR('',#1401,1000.);
#831=VECTOR('',#1402,1000.);
#832=VECTOR('',#1403,1000.);
#833=VECTOR('',#1404,1000.);
#834=VECTOR('',#1405,1000.);
#835=VECTOR('',#1406,1000.);
#836=VECTOR('',#1407,1000.);
#837=VECTOR('',#1408,1000.);
#838=VECTOR('',#1409,1000.);
#839=VECTOR('',#1410,1000.);
#840=VECTOR('',#1411,1000.);
#841=VECTOR('',#1412,1000.);
#842=VECTOR('',#1413,1000.);
#843=VECTOR('',#1414,1000.);
#844=VECTOR('',#1415,1000.);
#845=VECTOR('',#1416,1000.);
#846=VECTOR('',#1417,1000.);
#847=VECTOR('',#1418,1000.);
#848=VECTOR('',#1419,1000.);
#849=VECTOR('',#1420,1000.);
#850=VECTOR('',#1421,1000.);
#851=VECTOR('',#1422,1000.);
#852=VECTOR('',#1423,1000.);
#853=VECTOR('',#1424,1000.);
#854=VECTOR('',#1425,1000.);
#855=VECTOR('',#1426,1000.);
#856=VECTOR('',#1427,1000.);
#857=VECTOR('',#1428,1000.);
#858=VECTOR('',#1429,1000.);
#859=VECTOR('',#1430,1000.);
#860=VECTOR('',#1431,1000.);
#861=VECTOR('',#1434,1000.);
#862=VECTOR('',#1435,1000.);
#863=VECTOR('',#1438,1000.);
#864=VECTOR('',#1441,1000.);
#865=VECTOR('',#1446,1000.);
#866=VECTOR('',#1447,1000.);
#867=VECTOR('',#1450,1000.);
#868=VECTOR('',#1453,1000.);
#869=VECTOR('',#1458,1000.);
#870=VECTOR('',#1459,1000.);
#871=VECTOR('',#1462,1000.);
#872=VECTOR('',#1465,1000.);
#873=VECTOR('',#1470,1000.);
#874=VECTOR('',#1471,1000.);
#875=VECTOR('',#1474,1000.);
#876=VECTOR('',#1477,1000.);
#877=VECTOR('',#1482,1000.);
#878=VECTOR('',#1483,1000.);
#879=VECTOR('',#1486,1000.);
#880=VECTOR('',#1489,1000.);
#881=VECTOR('',#1494,1000.);
#882=VECTOR('',#1495,1000.);
#883=VECTOR('',#1498,1000.);
#884=VECTOR('',#1501,1000.);
#885=VECTOR('',#1506,1000.);
#886=VECTOR('',#1507,1000.);
#887=VECTOR('',#1510,1000.);
#888=VECTOR('',#1513,1000.);
#889=VECTOR('',#1518,1000.);
#890=VECTOR('',#1519,1000.);
#891=VECTOR('',#1522,1000.);
#892=VECTOR('',#1525,1000.);
#893=VECTOR('',#1532,1000.);
#894=VECTOR('',#1533,1000.);
#895=VECTOR('',#1536,1000.);
#896=VECTOR('',#1539,1000.);
#897=VECTOR('',#1544,1000.);
#898=VECTOR('',#1545,1000.);
#899=VECTOR('',#1548,1000.);
#900=VECTOR('',#1551,1000.);
#901=VECTOR('',#1556,1000.);
#902=VECTOR('',#1557,1000.);
#903=VECTOR('',#1560,1000.);
#904=VECTOR('',#1563,1000.);
#905=EDGE_LOOP('',(#33,#34,#35,#36));
#906=EDGE_LOOP('',(#37,#38,#39,#40));
#907=EDGE_LOOP('',(#41,#42,#43,#44));
#908=EDGE_LOOP('',(#45,#46,#47,#48));
#909=EDGE_LOOP('',(#49,#50,#51,#52));
#910=EDGE_LOOP('',(#53));
#911=EDGE_LOOP('',(#54));
#912=EDGE_LOOP('',(#55));
#913=EDGE_LOOP('',(#56));
#914=EDGE_LOOP('',(#57));
#915=EDGE_LOOP('',(#58));
#916=EDGE_LOOP('',(#59,#60,#61,#62));
#917=EDGE_LOOP('',(#63,#64,#65,#66));
#918=EDGE_LOOP('',(#67));
#919=EDGE_LOOP('',(#68,#69,#70,#71));
#920=EDGE_LOOP('',(#72,#73,#74,#75));
#921=EDGE_LOOP('',(#76,#77,#78,#79));
#922=EDGE_LOOP('',(#80,#81,#82,#83));
#923=EDGE_LOOP('',(#84,#85,#86,#87));
#924=EDGE_LOOP('',(#88,#89,#90,#91));
#925=EDGE_LOOP('',(#92,#93,#94,#95));
#926=EDGE_LOOP('',(#96,#97,#98,#99));
#927=EDGE_LOOP('',(#100,#101,#102,#103));
#928=EDGE_LOOP('',(#104,#105,#106,#107));
#929=EDGE_LOOP('',(#108));
#930=EDGE_LOOP('',(#109));
#931=EDGE_LOOP('',(#110));
#932=EDGE_LOOP('',(#111));
#933=EDGE_LOOP('',(#112));
#934=EDGE_LOOP('',(#113));
#935=EDGE_LOOP('',(#114,#115,#116,#117));
#936=EDGE_LOOP('',(#118,#119,#120,#121));
#937=EDGE_LOOP('',(#122));
#938=EDGE_LOOP('',(#123,#124,#125,#126));
#939=EDGE_LOOP('',(#127,#128,#129,#130));
#940=EDGE_LOOP('',(#131,#132,#133,#134));
#941=EDGE_LOOP('',(#135,#136,#137,#138));
#942=EDGE_LOOP('',(#139,#140,#141,#142));
#943=EDGE_LOOP('',(#143,#144,#145,#146));
#944=EDGE_LOOP('',(#147,#148,#149,#150));
#945=EDGE_LOOP('',(#151,#152,#153,#154));
#946=EDGE_LOOP('',(#155,#156,#157,#158));
#947=EDGE_LOOP('',(#159,#160,#161,#162));
#948=EDGE_LOOP('',(#163,#164,#165,#166));
#949=EDGE_LOOP('',(#167,#168,#169,#170));
#950=EDGE_LOOP('',(#171,#172,#173,#174));
#951=EDGE_LOOP('',(#175,#176,#177,#178));
#952=EDGE_LOOP('',(#179,#180,#181,#182));
#953=EDGE_LOOP('',(#183,#184,#185,#186));
#954=EDGE_LOOP('',(#187,#188,#189,#190));
#955=EDGE_LOOP('',(#191,#192,#193,#194));
#956=EDGE_LOOP('',(#195,#196,#197,#198));
#957=EDGE_LOOP('',(#199,#200,#201,#202));
#958=EDGE_LOOP('',(#203,#204,#205,#206));
#959=EDGE_LOOP('',(#207,#208,#209,#210));
#960=EDGE_LOOP('',(#211,#212,#213,#214));
#961=EDGE_LOOP('',(#215,#216,#217,#218));
#962=EDGE_LOOP('',(#219,#220,#221,#222));
#963=EDGE_LOOP('',(#223,#224,#225,#226));
#964=EDGE_LOOP('',(#227,#228,#229,#230));
#965=EDGE_LOOP('',(#231,#232,#233,#234));
#966=EDGE_LOOP('',(#235,#236,#237,#238));
#967=EDGE_LOOP('',(#239,#240,#241,#242));
#968=EDGE_LOOP('',(#243,#244,#245,#246));
#969=EDGE_LOOP('',(#247,#248,#249,#250));
#970=EDGE_LOOP('',(#251,#252,#253,#254));
#971=EDGE_LOOP('',(#255,#256,#257,#258));
#972=EDGE_LOOP('',(#259,#260,#261,#262));
#973=EDGE_LOOP('',(#263,#264,#265,#266));
#974=EDGE_LOOP('',(#267,#268,#269,#270));
#975=EDGE_LOOP('',(#271,#272,#273,#274));
#976=EDGE_LOOP('',(#275,#276,#277,#278));
#977=EDGE_LOOP('',(#279,#280,#281,#282));
#978=EDGE_LOOP('',(#283,#284,#285,#286));
#979=EDGE_LOOP('',(#287));
#980=EDGE_LOOP('',(#288));
#981=EDGE_LOOP('',(#289,#290,#291,#292));
#982=EDGE_LOOP('',(#293,#294,#295,#296));
#983=EDGE_LOOP('',(#297,#298,#299,#300));
#984=EDGE_LOOP('',(#301,#302,#303,#304));
#985=EDGE_LOOP('',(#305,#306,#307,#308));
#986=EDGE_LOOP('',(#309,#310,#311,#312));
#987=EDGE_LOOP('',(#313,#314,#315,#316));
#988=EDGE_LOOP('',(#317,#318,#319,#320));
#989=EDGE_LOOP('',(#321));
#990=EDGE_LOOP('',(#322));
#991=EDGE_LOOP('',(#323));
#992=EDGE_LOOP('',(#324));
#993=EDGE_LOOP('',(#325));
#994=EDGE_LOOP('',(#326));
#995=EDGE_LOOP('',(#327));
#996=EDGE_LOOP('',(#328));
#997=EDGE_LOOP('',(#329));
#998=EDGE_LOOP('',(#330));
#999=EDGE_LOOP('',(#331));
#1000=EDGE_LOOP('',(#332));
#1001=EDGE_LOOP('',(#333,#334,#335,#336));
#1002=EDGE_LOOP('',(#337,#338,#339,#340));
#1003=EDGE_LOOP('',(#341,#342,#343,#344));
#1004=EDGE_LOOP('',(#345,#346,#347,#348));
#1005=FACE_BOUND('',#905,.T.);
#1006=FACE_BOUND('',#906,.T.);
#1007=FACE_BOUND('',#907,.T.);
#1008=FACE_BOUND('',#908,.T.);
#1009=FACE_BOUND('',#909,.T.);
#1010=FACE_BOUND('',#910,.T.);
#1011=FACE_BOUND('',#911,.T.);
#1012=FACE_BOUND('',#912,.T.);
#1013=FACE_BOUND('',#913,.T.);
#1014=FACE_BOUND('',#914,.T.);
#1015=FACE_BOUND('',#915,.T.);
#1016=FACE_BOUND('',#916,.T.);
#1017=FACE_BOUND('',#917,.T.);
#1018=FACE_BOUND('',#918,.T.);
#1019=FACE_BOUND('',#919,.T.);
#1020=FACE_BOUND('',#920,.T.);
#1021=FACE_BOUND('',#921,.T.);
#1022=FACE_BOUND('',#922,.T.);
#1023=FACE_BOUND('',#923,.T.);
#1024=FACE_BOUND('',#924,.T.);
#1025=FACE_BOUND('',#925,.T.);
#1026=FACE_BOUND('',#926,.T.);
#1027=FACE_BOUND('',#927,.T.);
#1028=FACE_BOUND('',#928,.T.);
#1029=FACE_BOUND('',#929,.T.);
#1030=FACE_BOUND('',#930,.T.);
#1031=FACE_BOUND('',#931,.T.);
#1032=FACE_BOUND('',#932,.T.);
#1033=FACE_BOUND('',#933,.T.);
#1034=FACE_BOUND('',#934,.T.);
#1035=FACE_BOUND('',#935,.T.);
#1036=FACE_BOUND('',#936,.T.);
#1037=FACE_BOUND('',#937,.T.);
#1038=FACE_BOUND('',#938,.T.);
#1039=FACE_BOUND('',#939,.T.);
#1040=FACE_BOUND('',#940,.T.);
#1041=FACE_BOUND('',#941,.T.);
#1042=FACE_BOUND('',#942,.T.);
#1043=FACE_BOUND('',#943,.T.);
#1044=FACE_BOUND('',#944,.T.);
#1045=FACE_BOUND('',#945,.T.);
#1046=FACE_BOUND('',#946,.T.);
#1047=FACE_BOUND('',#947,.T.);
#1048=FACE_BOUND('',#948,.T.);
#1049=FACE_BOUND('',#949,.T.);
#1050=FACE_BOUND('',#950,.T.);
#1051=FACE_BOUND('',#951,.T.);
#1052=FACE_BOUND('',#952,.T.);
#1053=FACE_BOUND('',#953,.T.);
#1054=FACE_BOUND('',#954,.T.);
#1055=FACE_BOUND('',#955,.T.);
#1056=FACE_BOUND('',#956,.T.);
#1057=FACE_BOUND('',#957,.T.);
#1058=FACE_BOUND('',#958,.T.);
#1059=FACE_BOUND('',#959,.T.);
#1060=FACE_BOUND('',#960,.T.);
#1061=FACE_BOUND('',#961,.T.);
#1062=FACE_BOUND('',#962,.T.);
#1063=FACE_BOUND('',#963,.T.);
#1064=FACE_BOUND('',#964,.T.);
#1065=FACE_BOUND('',#965,.T.);
#1066=FACE_BOUND('',#966,.T.);
#1067=FACE_BOUND('',#967,.T.);
#1068=FACE_BOUND('',#968,.T.);
#1069=FACE_BOUND('',#969,.T.);
#1070=FACE_BOUND('',#970,.T.);
#1071=FACE_BOUND('',#971,.T.);
#1072=FACE_BOUND('',#972,.T.);
#1073=FACE_BOUND('',#973,.T.);
#1074=FACE_BOUND('',#974,.T.);
#1075=FACE_BOUND('',#975,.T.);
#1076=FACE_BOUND('',#976,.T.);
#1077=FACE_BOUND('',#977,.T.);
#1078=FACE_BOUND('',#978,.T.);
#1079=FACE_BOUND('',#979,.T.);
#1080=FACE_BOUND('',#980,.T.);
#1081=FACE_BOUND('',#981,.T.);
#1082=FACE_BOUND('',#982,.T.);
#1083=FACE_BOUND('',#983,.T.);
#1084=FACE_BOUND('',#984,.T.);
#1085=FACE_BOUND('',#985,.T.);
#1086=FACE_BOUND('',#986,.T.);
#1087=FACE_BOUND('',#987,.T.);
#1088=FACE_BOUND('',#988,.T.);
#1089=FACE_BOUND('',#989,.T.);
#1090=FACE_BOUND('',#990,.T.);
#1091=FACE_BOUND('',#991,.T.);
#1092=FACE_BOUND('',#992,.T.);
#1093=FACE_BOUND('',#993,.T.);
#1094=FACE_BOUND('',#994,.T.);
#1095=FACE_BOUND('',#995,.T.);
#1096=FACE_BOUND('',#996,.T.);
#1097=FACE_BOUND('',#997,.T.);
#1098=FACE_BOUND('',#998,.T.);
#1099=FACE_BOUND('',#999,.T.);
#1100=FACE_BOUND('',#1000,.T.);
#1101=FACE_BOUND('',#1001,.T.);
#1102=FACE_BOUND('',#1002,.T.);
#1103=FACE_BOUND('',#1003,.T.);
#1104=FACE_BOUND('',#1004,.T.);
#1105=PLANE('',#1225);
#1106=PLANE('',#1226);
#1107=PLANE('',#1227);
#1108=PLANE('',#1228);
#1109=PLANE('',#1229);
#1110=PLANE('',#1237);
#1111=PLANE('',#1245);
#1112=PLANE('',#1246);
#1113=PLANE('',#1247);
#1114=PLANE('',#1248);
#1115=PLANE('',#1249);
#1116=PLANE('',#1250);
#1117=PLANE('',#1251);
#1118=PLANE('',#1252);
#1119=PLANE('',#1253);
#1120=PLANE('',#1254);
#1121=PLANE('',#1255);
#1122=PLANE('',#1256);
#1123=PLANE('',#1257);
#1124=PLANE('',#1258);
#1125=PLANE('',#1259);
#1126=PLANE('',#1260);
#1127=PLANE('',#1261);
#1128=PLANE('',#1262);
#1129=PLANE('',#1263);
#1130=PLANE('',#1264);
#1131=PLANE('',#1265);
#1132=PLANE('',#1266);
#1133=PLANE('',#1267);
#1134=PLANE('',#1268);
#1135=PLANE('',#1269);
#1136=PLANE('',#1270);
#1137=PLANE('',#1271);
#1138=PLANE('',#1272);
#1139=PLANE('',#1273);
#1140=PLANE('',#1274);
#1141=PLANE('',#1275);
#1142=PLANE('',#1276);
#1143=PLANE('',#1278);
#1144=PLANE('',#1279);
#1145=PLANE('',#1280);
#1146=PLANE('',#1281);
#1147=PLANE('',#1282);
#1148=PLANE('',#1283);
#1149=PLANE('',#1284);
#1150=PLANE('',#1285);
#1151=PLANE('',#1286);
#1152=PLANE('',#1287);
#1153=PLANE('',#1288);
#1154=PLANE('',#1289);
#1155=ADVANCED_FACE('',(#1005),#1105,.T.);
#1156=ADVANCED_FACE('',(#1006),#1106,.F.);
#1157=ADVANCED_FACE('',(#1007),#1107,.F.);
#1158=ADVANCED_FACE('',(#1008),#1108,.T.);
#1159=ADVANCED_FACE('',(#1009,#1010,#1011,#1012,#1013,#1014,#1015,#1016,
#1017,#1018,#1019,#1020,#1021,#1022,#1023,#1024,#1025,#1026,#1027),#1109,
 .T.);
#1160=ADVANCED_FACE('',(#1028,#1029,#1030,#1031,#1032,#1033,#1034,#1035,
#1036,#1037,#1038,#1039,#1040,#1041,#1042,#1043,#1044,#1045,#1046),#1110,
 .F.);
#1161=ADVANCED_FACE('',(#1047),#1111,.F.);
#1162=ADVANCED_FACE('',(#1048),#1112,.T.);
#1163=ADVANCED_FACE('',(#1049),#1113,.T.);
#1164=ADVANCED_FACE('',(#1050),#1114,.F.);
#1165=ADVANCED_FACE('',(#1051),#1115,.F.);
#1166=ADVANCED_FACE('',(#1052),#1116,.T.);
#1167=ADVANCED_FACE('',(#1053),#1117,.T.);
#1168=ADVANCED_FACE('',(#1054),#1118,.F.);
#1169=ADVANCED_FACE('',(#1055),#1119,.F.);
#1170=ADVANCED_FACE('',(#1056),#1120,.T.);
#1171=ADVANCED_FACE('',(#1057),#1121,.T.);
#1172=ADVANCED_FACE('',(#1058),#1122,.F.);
#1173=ADVANCED_FACE('',(#1059),#1123,.F.);
#1174=ADVANCED_FACE('',(#1060),#1124,.T.);
#1175=ADVANCED_FACE('',(#1061),#1125,.T.);
#1176=ADVANCED_FACE('',(#1062),#1126,.F.);
#1177=ADVANCED_FACE('',(#1063),#1127,.F.);
#1178=ADVANCED_FACE('',(#1064),#1128,.T.);
#1179=ADVANCED_FACE('',(#1065),#1129,.T.);
#1180=ADVANCED_FACE('',(#1066),#1130,.F.);
#1181=ADVANCED_FACE('',(#1067),#1131,.F.);
#1182=ADVANCED_FACE('',(#1068),#1132,.T.);
#1183=ADVANCED_FACE('',(#1069),#1133,.T.);
#1184=ADVANCED_FACE('',(#1070),#1134,.F.);
#1185=ADVANCED_FACE('',(#1071),#1135,.F.);
#1186=ADVANCED_FACE('',(#1072),#1136,.T.);
#1187=ADVANCED_FACE('',(#1073),#1137,.T.);
#1188=ADVANCED_FACE('',(#1074),#1138,.F.);
#1189=ADVANCED_FACE('',(#1075),#1139,.F.);
#1190=ADVANCED_FACE('',(#1076),#1140,.T.);
#1191=ADVANCED_FACE('',(#1077),#1141,.T.);
#1192=ADVANCED_FACE('',(#1078),#1142,.F.);
#1193=ADVANCED_FACE('',(#1079,#1080),#18,.F.);
#1194=ADVANCED_FACE('',(#1081),#1143,.F.);
#1195=ADVANCED_FACE('',(#1082),#1144,.T.);
#1196=ADVANCED_FACE('',(#1083),#1145,.T.);
#1197=ADVANCED_FACE('',(#1084),#1146,.F.);
#1198=ADVANCED_FACE('',(#1085),#1147,.F.);
#1199=ADVANCED_FACE('',(#1086),#1148,.T.);
#1200=ADVANCED_FACE('',(#1087),#1149,.T.);
#1201=ADVANCED_FACE('',(#1088),#1150,.F.);
#1202=ADVANCED_FACE('',(#1089,#1090),#12,.T.);
#1203=ADVANCED_FACE('',(#1091,#1092),#13,.T.);
#1204=ADVANCED_FACE('',(#1093,#1094),#14,.T.);
#1205=ADVANCED_FACE('',(#1095,#1096),#15,.T.);
#1206=ADVANCED_FACE('',(#1097,#1098),#16,.T.);
#1207=ADVANCED_FACE('',(#1099,#1100),#17,.T.);
#1208=ADVANCED_FACE('',(#1101),#1151,.F.);
#1209=ADVANCED_FACE('',(#1102),#1152,.T.);
#1210=ADVANCED_FACE('',(#1103),#1153,.T.);
#1211=ADVANCED_FACE('',(#1104),#1154,.F.);
#1212=CLOSED_SHELL('',(#1155,#1156,#1157,#1158,#1159,#1160,#1161,#1162,
#1163,#1164,#1165,#1166,#1167,#1168,#1169,#1170,#1171,#1172,#1173,#1174,
#1175,#1176,#1177,#1178,#1179,#1180,#1181,#1182,#1183,#1184,#1185,#1186,
#1187,#1188,#1189,#1190,#1191,#1192,#1193,#1194,#1195,#1196,#1197,#1198,
#1199,#1200,#1201,#1202,#1203,#1204,#1205,#1206,#1207,#1208,#1209,#1210,
#1211));
#1213=STYLED_ITEM('',(#1214),#1221);
#1214=PRESENTATION_STYLE_ASSIGNMENT((#1215));
#1215=SURFACE_STYLE_USAGE(.BOTH.,#1216);
#1216=SURFACE_SIDE_STYLE('',(#1217));
#1217=SURFACE_STYLE_FILL_AREA(#1218);
#1218=FILL_AREA_STYLE('',(#1219));
#1219=FILL_AREA_STYLE_COLOUR('',#1220);
#1220=COLOUR_RGB('',0.615686274509804,0.811764705882353,0.929411764705882);
#1221=MANIFOLD_SOLID_BREP('Part 1',#1212);
#1222=SHAPE_DEFINITION_REPRESENTATION(#2088,#1223);
#1223=SHAPE_REPRESENTATION('Part 1',(#1224),#2083);
#1224=AXIS2_PLACEMENT_3D('',#1566,#1290,#1291);
#1225=AXIS2_PLACEMENT_3D('',#1567,#1292,#1293);
#1226=AXIS2_PLACEMENT_3D('',#1576,#1298,#1299);
#1227=AXIS2_PLACEMENT_3D('',#1582,#1303,#1304);
#1228=AXIS2_PLACEMENT_3D('',#1588,#1308,#1309);
#1229=AXIS2_PLACEMENT_3D('',#1591,#1312,#1313);
#1230=AXIS2_PLACEMENT_3D('',#1600,#1318,#1319);
#1231=AXIS2_PLACEMENT_3D('',#1602,#1320,#1321);
#1232=AXIS2_PLACEMENT_3D('',#1604,#1322,#1323);
#1233=AXIS2_PLACEMENT_3D('',#1606,#1324,#1325);
#1234=AXIS2_PLACEMENT_3D('',#1608,#1326,#1327);
#1235=AXIS2_PLACEMENT_3D('',#1610,#1328,#1329);
#1236=AXIS2_PLACEMENT_3D('',#1628,#1338,#1339);
#1237=AXIS2_PLACEMENT_3D('',#1694,#1372,#1373);
#1238=AXIS2_PLACEMENT_3D('',#1703,#1378,#1379);
#1239=AXIS2_PLACEMENT_3D('',#1705,#1380,#1381);
#1240=AXIS2_PLACEMENT_3D('',#1707,#1382,#1383);
#1241=AXIS2_PLACEMENT_3D('',#1709,#1384,#1385);
#1242=AXIS2_PLACEMENT_3D('',#1711,#1386,#1387);
#1243=AXIS2_PLACEMENT_3D('',#1713,#1388,#1389);
#1244=AXIS2_PLACEMENT_3D('',#1731,#1398,#1399);
#1245=AXIS2_PLACEMENT_3D('',#1797,#1432,#1433);
#1246=AXIS2_PLACEMENT_3D('',#1800,#1436,#1437);
#1247=AXIS2_PLACEMENT_3D('',#1802,#1439,#1440);
#1248=AXIS2_PLACEMENT_3D('',#1804,#1442,#1443);
#1249=AXIS2_PLACEMENT_3D('',#1805,#1444,#1445);
#1250=AXIS2_PLACEMENT_3D('',#1808,#1448,#1449);
#1251=AXIS2_PLACEMENT_3D('',#1810,#1451,#1452);
#1252=AXIS2_PLACEMENT_3D('',#1812,#1454,#1455);
#1253=AXIS2_PLACEMENT_3D('',#1813,#1456,#1457);
#1254=AXIS2_PLACEMENT_3D('',#1816,#1460,#1461);
#1255=AXIS2_PLACEMENT_3D('',#1818,#1463,#1464);
#1256=AXIS2_PLACEMENT_3D('',#1820,#1466,#1467);
#1257=AXIS2_PLACEMENT_3D('',#1821,#1468,#1469);
#1258=AXIS2_PLACEMENT_3D('',#1824,#1472,#1473);
#1259=AXIS2_PLACEMENT_3D('',#1826,#1475,#1476);
#1260=AXIS2_PLACEMENT_3D('',#1828,#1478,#1479);
#1261=AXIS2_PLACEMENT_3D('',#1829,#1480,#1481);
#1262=AXIS2_PLACEMENT_3D('',#1832,#1484,#1485);
#1263=AXIS2_PLACEMENT_3D('',#1834,#1487,#1488);
#1264=AXIS2_PLACEMENT_3D('',#1836,#1490,#1491);
#1265=AXIS2_PLACEMENT_3D('',#1837,#1492,#1493);
#1266=AXIS2_PLACEMENT_3D('',#1840,#1496,#1497);
#1267=AXIS2_PLACEMENT_3D('',#1842,#1499,#1500);
#1268=AXIS2_PLACEMENT_3D('',#1844,#1502,#1503);
#1269=AXIS2_PLACEMENT_3D('',#1845,#1504,#1505);
#1270=AXIS2_PLACEMENT_3D('',#1848,#1508,#1509);
#1271=AXIS2_PLACEMENT_3D('',#1850,#1511,#1512);
#1272=AXIS2_PLACEMENT_3D('',#1852,#1514,#1515);
#1273=AXIS2_PLACEMENT_3D('',#1853,#1516,#1517);
#1274=AXIS2_PLACEMENT_3D('',#1856,#1520,#1521);
#1275=AXIS2_PLACEMENT_3D('',#1858,#1523,#1524);
#1276=AXIS2_PLACEMENT_3D('',#1860,#1526,#1527);
#1277=AXIS2_PLACEMENT_3D('',#1861,#1528,#1529);
#1278=AXIS2_PLACEMENT_3D('',#1862,#1530,#1531);
#1279=AXIS2_PLACEMENT_3D('',#1865,#1534,#1535);
#1280=AXIS2_PLACEMENT_3D('',#1867,#1537,#1538);
#1281=AXIS2_PLACEMENT_3D('',#1869,#1540,#1541);
#1282=AXIS2_PLACEMENT_3D('',#1870,#1542,#1543);
#1283=AXIS2_PLACEMENT_3D('',#1873,#1546,#1547);
#1284=AXIS2_PLACEMENT_3D('',#1875,#1549,#1550);
#1285=AXIS2_PLACEMENT_3D('',#1877,#1552,#1553);
#1286=AXIS2_PLACEMENT_3D('',#2074,#1554,#1555);
#1287=AXIS2_PLACEMENT_3D('',#2077,#1558,#1559);
#1288=AXIS2_PLACEMENT_3D('',#2079,#1561,#1562);
#1289=AXIS2_PLACEMENT_3D('',#2081,#1564,#1565);
#1290=DIRECTION('',(0.,0.,1.));
#1291=DIRECTION('',(1.,0.,0.));
#1292=DIRECTION('',(-1.,0.,0.));
#1293=DIRECTION('',(0.,0.,1.));
#1294=DIRECTION('',(0.,1.,0.));
#1295=DIRECTION('',(0.,0.,-1.));
#1296=DIRECTION('',(0.,1.,0.));
#1297=DIRECTION('',(0.,0.,-1.));
#1298=DIRECTION('',(-3.85494105772624E-17,1.,0.));
#1299=DIRECTION('',(-1.,-3.85494105772624E-17,0.));
#1300=DIRECTION('',(1.,3.85494105772624E-17,0.));
#1301=DIRECTION('',(0.,0.,-1.));
#1302=DIRECTION('',(1.,3.85494105772624E-17,0.));
#1303=DIRECTION('',(-1.,0.,0.));
#1304=DIRECTION('',(0.,0.,1.));
#1305=DIRECTION('',(0.,1.,0.));
#1306=DIRECTION('',(0.,0.,-1.));
#1307=DIRECTION('',(0.,1.,0.));
#1308=DIRECTION('',(0.,1.,0.));
#1309=DIRECTION('',(0.,0.,1.));
#1310=DIRECTION('',(1.,0.,0.));
#1311=DIRECTION('',(1.,0.,0.));
#1312=DIRECTION('',(0.,0.,1.));
#1313=DIRECTION('',(1.,0.,0.));
#1314=DIRECTION('',(-8.46206573647223E-17,-1.,0.));
#1315=DIRECTION('',(-1.,0.,0.));
#1316=DIRECTION('',(0.,-1.,0.));
#1317=DIRECTION('',(-1.,0.,0.));
#1318=DIRECTION('',(0.,0.,1.));
#1319=DIRECTION('',(0.,-1.,0.));
#1320=DIRECTION('',(0.,0.,1.));
#1321=DIRECTION('',(0.,-1.,0.));
#1322=DIRECTION('',(0.,0.,1.));
#1323=DIRECTION('',(0.,-1.,0.));
#1324=DIRECTION('',(0.,0.,1.));
#1325=DIRECTION('',(0.,-1.,0.));
#1326=DIRECTION('',(0.,0.,1.));
#1327=DIRECTION('',(0.,-1.,0.));
#1328=DIRECTION('',(0.,0.,1.));
#1329=DIRECTION('',(0.,-1.,0.));
#1330=DIRECTION('',(0.,1.,0.));
#1331=DIRECTION('',(1.,0.,0.));
#1332=DIRECTION('',(0.,1.,0.));
#1333=DIRECTION('',(1.,0.,0.));
#1334=DIRECTION('',(0.,-1.,0.));
#1335=DIRECTION('',(-1.,0.,0.));
#1336=DIRECTION('',(0.,-1.,0.));
#1337=DIRECTION('',(-1.,0.,0.));
#1338=DIRECTION('',(0.,0.,1.));
#1339=DIRECTION('',(1.,0.,0.));
#1340=DIRECTION('',(0.,-1.,0.));
#1341=DIRECTION('',(-1.,0.,0.));
#1342=DIRECTION('',(0.,-1.,0.));
#1343=DIRECTION('',(-1.,0.,0.));
#1344=DIRECTION('',(4.86939923081209E-16,-1.,0.));
#1345=DIRECTION('',(-1.,0.,0.));
#1346=DIRECTION('',(0.,-1.,0.));
#1347=DIRECTION('',(-1.,0.,0.));
#1348=DIRECTION('',(4.86939923081209E-16,-1.,0.));
#1349=DIRECTION('',(-1.,0.,0.));
#1350=DIRECTION('',(4.86939923081209E-16,-1.,0.));
#1351=DIRECTION('',(-1.,0.,0.));
#1352=DIRECTION('',(4.86939923081209E-16,-1.,0.));
#1353=DIRECTION('',(-1.,0.,0.));
#1354=DIRECTION('',(4.86939923081209E-16,-1.,0.));
#1355=DIRECTION('',(-1.,0.,0.));
#1356=DIRECTION('',(1.,0.,0.));
#1357=DIRECTION('',(2.43469961540605E-16,-1.,0.));
#1358=DIRECTION('',(1.,0.,0.));
#1359=DIRECTION('',(4.86939923081209E-16,-1.,0.));
#1360=DIRECTION('',(2.43469961540605E-16,-1.,0.));
#1361=DIRECTION('',(-1.,0.,0.));
#1362=DIRECTION('',(2.43469961540605E-16,-1.,0.));
#1363=DIRECTION('',(-1.,0.,0.));
#1364=DIRECTION('',(-2.43469961540605E-16,1.,0.));
#1365=DIRECTION('',(1.,0.,0.));
#1366=DIRECTION('',(-3.65204942310907E-16,1.,0.));
#1367=DIRECTION('',(1.,0.,0.));
#1368=DIRECTION('',(4.56506177888634E-16,-1.,0.));
#1369=DIRECTION('',(-1.,-4.78544407166016E-16,0.));
#1370=DIRECTION('',(1.82602471155453E-16,-1.,0.));
#1371=DIRECTION('',(-1.,0.,0.));
#1372=DIRECTION('',(0.,0.,1.));
#1373=DIRECTION('',(1.,0.,0.));
#1374=DIRECTION('',(1.,0.,0.));
#1375=DIRECTION('',(8.46206573647223E-17,1.,0.));
#1376=DIRECTION('',(1.,0.,0.));
#1377=DIRECTION('',(0.,1.,0.));
#1378=DIRECTION('',(0.,0.,1.));
#1379=DIRECTION('',(0.,-1.,0.));
#1380=DIRECTION('',(0.,0.,1.));
#1381=DIRECTION('',(0.,-1.,0.));
#1382=DIRECTION('',(0.,0.,1.));
#1383=DIRECTION('',(0.,-1.,0.));
#1384=DIRECTION('',(0.,0.,1.));
#1385=DIRECTION('',(0.,-1.,0.));
#1386=DIRECTION('',(0.,0.,1.));
#1387=DIRECTION('',(0.,-1.,0.));
#1388=DIRECTION('',(0.,0.,1.));
#1389=DIRECTION('',(0.,-1.,0.));
#1390=DIRECTION('',(-1.,0.,0.));
#1391=DIRECTION('',(0.,-1.,0.));
#1392=DIRECTION('',(-1.,0.,0.));
#1393=DIRECTION('',(0.,-1.,0.));
#1394=DIRECTION('',(1.,0.,0.));
#1395=DIRECTION('',(0.,1.,0.));
#1396=DIRECTION('',(1.,0.,0.));
#1397=DIRECTION('',(0.,1.,0.));
#1398=DIRECTION('',(0.,0.,1.));
#1399=DIRECTION('',(1.,0.,0.));
#1400=DIRECTION('',(1.,0.,0.));
#1401=DIRECTION('',(0.,1.,0.));
#1402=DIRECTION('',(1.,0.,0.));
#1403=DIRECTION('',(0.,1.,0.));
#1404=DIRECTION('',(1.,0.,0.));
#1405=DIRECTION('',(-4.86939923081209E-16,1.,0.));
#1406=DIRECTION('',(1.,0.,0.));
#1407=DIRECTION('',(0.,1.,0.));
#1408=DIRECTION('',(1.,0.,0.));
#1409=DIRECTION('',(-4.86939923081209E-16,1.,0.));
#1410=DIRECTION('',(1.,0.,0.));
#1411=DIRECTION('',(-4.86939923081209E-16,1.,0.));
#1412=DIRECTION('',(1.,0.,0.));
#1413=DIRECTION('',(-4.86939923081209E-16,1.,0.));
#1414=DIRECTION('',(1.,0.,0.));
#1415=DIRECTION('',(-4.86939923081209E-16,1.,0.));
#1416=DIRECTION('',(-2.43469961540605E-16,1.,0.));
#1417=DIRECTION('',(-1.,0.,0.));
#1418=DIRECTION('',(-4.86939923081209E-16,1.,0.));
#1419=DIRECTION('',(-1.,0.,0.));
#1420=DIRECTION('',(1.,0.,0.));
#1421=DIRECTION('',(-2.43469961540605E-16,1.,0.));
#1422=DIRECTION('',(1.,0.,0.));
#1423=DIRECTION('',(-2.43469961540605E-16,1.,0.));
#1424=DIRECTION('',(-1.,0.,0.));
#1425=DIRECTION('',(2.43469961540605E-16,-1.,0.));
#1426=DIRECTION('',(-1.,0.,0.));
#1427=DIRECTION('',(3.65204942310907E-16,-1.,0.));
#1428=DIRECTION('',(1.,4.78544407166016E-16,0.));
#1429=DIRECTION('',(-4.56506177888634E-16,1.,0.));
#1430=DIRECTION('',(1.,0.,0.));
#1431=DIRECTION('',(-1.82602471155453E-16,1.,0.));
#1432=DIRECTION('',(-1.,-4.56506177888634E-16,0.));
#1433=DIRECTION('',(4.56506177888634E-16,-1.,0.));
#1434=DIRECTION('',(0.,0.,-1.));
#1435=DIRECTION('',(0.,0.,-1.));
#1436=DIRECTION('',(0.,1.,0.));
#1437=DIRECTION('',(0.,0.,1.));
#1438=DIRECTION('',(0.,0.,-1.));
#1439=DIRECTION('',(-1.,-1.82602471155453E-16,0.));
#1440=DIRECTION('',(1.82602471155453E-16,-1.,0.));
#1441=DIRECTION('',(0.,0.,-1.));
#1442=DIRECTION('',(-4.78544407166016E-16,1.,0.));
#1443=DIRECTION('',(-1.,-4.78544407166016E-16,0.));
#1444=DIRECTION('',(1.,2.43469961540605E-16,0.));
#1445=DIRECTION('',(-2.43469961540605E-16,1.,0.));
#1446=DIRECTION('',(0.,0.,-1.));
#1447=DIRECTION('',(0.,0.,-1.));
#1448=DIRECTION('',(0.,-1.,0.));
#1449=DIRECTION('',(0.,0.,-1.));
#1450=DIRECTION('',(0.,0.,-1.));
#1451=DIRECTION('',(1.,3.65204942310907E-16,0.));
#1452=DIRECTION('',(-3.65204942310907E-16,1.,0.));
#1453=DIRECTION('',(0.,0.,-1.));
#1454=DIRECTION('',(0.,-1.,0.));
#1455=DIRECTION('',(0.,0.,-1.));
#1456=DIRECTION('',(-1.,-2.43469961540605E-16,0.));
#1457=DIRECTION('',(2.43469961540605E-16,-1.,0.));
#1458=DIRECTION('',(0.,0.,-1.));
#1459=DIRECTION('',(0.,0.,-1.));
#1460=DIRECTION('',(0.,1.,0.));
#1461=DIRECTION('',(0.,0.,1.));
#1462=DIRECTION('',(0.,0.,-1.));
#1463=DIRECTION('',(-1.,-2.43469961540605E-16,0.));
#1464=DIRECTION('',(2.43469961540605E-16,-1.,0.));
#1465=DIRECTION('',(0.,0.,-1.));
#1466=DIRECTION('',(0.,1.,0.));
#1467=DIRECTION('',(0.,0.,1.));
#1468=DIRECTION('',(0.,-1.,0.));
#1469=DIRECTION('',(0.,0.,-1.));
#1470=DIRECTION('',(0.,0.,-1.));
#1471=DIRECTION('',(0.,0.,-1.));
#1472=DIRECTION('',(-1.,-4.86939923081209E-16,0.));
#1473=DIRECTION('',(4.86939923081209E-16,-1.,0.));
#1474=DIRECTION('',(0.,0.,-1.));
#1475=DIRECTION('',(0.,-1.,0.));
#1476=DIRECTION('',(0.,0.,-1.));
#1477=DIRECTION('',(0.,0.,-1.));
#1478=DIRECTION('',(-1.,-2.43469961540605E-16,0.));
#1479=DIRECTION('',(2.43469961540605E-16,-1.,0.));
#1480=DIRECTION('',(-1.,-4.86939923081209E-16,0.));
#1481=DIRECTION('',(4.86939923081209E-16,-1.,0.));
#1482=DIRECTION('',(0.,0.,-1.));
#1483=DIRECTION('',(0.,0.,-1.));
#1484=DIRECTION('',(0.,1.,0.));
#1485=DIRECTION('',(0.,0.,1.));
#1486=DIRECTION('',(0.,0.,-1.));
#1487=DIRECTION('',(-1.,-4.86939923081209E-16,0.));
#1488=DIRECTION('',(4.86939923081209E-16,-1.,0.));
#1489=DIRECTION('',(0.,0.,-1.));
#1490=DIRECTION('',(0.,1.,0.));
#1491=DIRECTION('',(0.,0.,1.));
#1492=DIRECTION('',(-1.,-4.86939923081209E-16,0.));
#1493=DIRECTION('',(4.86939923081209E-16,-1.,0.));
#1494=DIRECTION('',(0.,0.,-1.));
#1495=DIRECTION('',(0.,0.,-1.));
#1496=DIRECTION('',(0.,1.,0.));
#1497=DIRECTION('',(0.,0.,1.));
#1498=DIRECTION('',(0.,0.,-1.));
#1499=DIRECTION('',(-1.,-4.86939923081209E-16,0.));
#1500=DIRECTION('',(4.86939923081209E-16,-1.,0.));
#1501=DIRECTION('',(0.,0.,-1.));
#1502=DIRECTION('',(0.,1.,0.));
#1503=DIRECTION('',(0.,0.,1.));
#1504=DIRECTION('',(-1.,-4.86939923081209E-16,0.));
#1505=DIRECTION('',(4.86939923081209E-16,-1.,0.));
#1506=DIRECTION('',(0.,0.,-1.));
#1507=DIRECTION('',(0.,0.,-1.));
#1508=DIRECTION('',(0.,1.,0.));
#1509=DIRECTION('',(0.,0.,1.));
#1510=DIRECTION('',(0.,0.,-1.));
#1511=DIRECTION('',(-1.,0.,0.));
#1512=DIRECTION('',(0.,0.,1.));
#1513=DIRECTION('',(0.,0.,-1.));
#1514=DIRECTION('',(0.,1.,0.));
#1515=DIRECTION('',(0.,0.,1.));
#1516=DIRECTION('',(-1.,0.,0.));
#1517=DIRECTION('',(0.,0.,1.));
#1518=DIRECTION('',(0.,0.,-1.));
#1519=DIRECTION('',(0.,0.,-1.));
#1520=DIRECTION('',(0.,1.,0.));
#1521=DIRECTION('',(0.,0.,1.));
#1522=DIRECTION('',(0.,0.,-1.));
#1523=DIRECTION('',(-1.,0.,0.));
#1524=DIRECTION('',(0.,0.,1.));
#1525=DIRECTION('',(0.,0.,-1.));
#1526=DIRECTION('',(0.,1.,0.));
#1527=DIRECTION('',(0.,0.,1.));
#1528=DIRECTION('',(0.,0.,-1.));
#1529=DIRECTION('',(-1.,0.,0.));
#1530=DIRECTION('',(-1.,0.,0.));
#1531=DIRECTION('',(0.,0.,1.));
#1532=DIRECTION('',(0.,0.,-1.));
#1533=DIRECTION('',(0.,0.,-1.));
#1534=DIRECTION('',(0.,1.,0.));
#1535=DIRECTION('',(0.,0.,1.));
#1536=DIRECTION('',(0.,0.,-1.));
#1537=DIRECTION('',(-1.,0.,0.));
#1538=DIRECTION('',(0.,0.,1.));
#1539=DIRECTION('',(0.,0.,-1.));
#1540=DIRECTION('',(0.,1.,0.));
#1541=DIRECTION('',(0.,0.,1.));
#1542=DIRECTION('',(1.,0.,0.));
#1543=DIRECTION('',(0.,0.,-1.));
#1544=DIRECTION('',(0.,0.,-1.));
#1545=DIRECTION('',(0.,0.,-1.));
#1546=DIRECTION('',(0.,-1.,0.));
#1547=DIRECTION('',(0.,0.,-1.));
#1548=DIRECTION('',(0.,0.,-1.));
#1549=DIRECTION('',(1.,0.,0.));
#1550=DIRECTION('',(0.,0.,-1.));
#1551=DIRECTION('',(0.,0.,-1.));
#1552=DIRECTION('',(0.,-1.,0.));
#1553=DIRECTION('',(0.,0.,-1.));
#1554=DIRECTION('',(-1.,8.46206573647223E-17,0.));
#1555=DIRECTION('',(-8.46206573647223E-17,-1.,0.));
#1556=DIRECTION('',(0.,0.,-1.));
#1557=DIRECTION('',(0.,0.,-1.));
#1558=DIRECTION('',(0.,1.,0.));
#1559=DIRECTION('',(0.,0.,1.));
#1560=DIRECTION('',(0.,0.,-1.));
#1561=DIRECTION('',(-1.,0.,0.));
#1562=DIRECTION('',(0.,0.,1.));
#1563=DIRECTION('',(0.,0.,-1.));
#1564=DIRECTION('',(0.,1.,0.));
#1565=DIRECTION('',(0.,0.,1.));
#1566=CARTESIAN_POINT('',(0.,0.,0.));
#1567=CARTESIAN_POINT('',(-180.,0.,5.));
#1568=CARTESIAN_POINT('',(-180.,0.,0.));
#1569=CARTESIAN_POINT('',(-180.,-90.,0.));
#1570=CARTESIAN_POINT('',(-180.,90.,0.));
#1571=CARTESIAN_POINT('',(-180.,-90.,5.));
#1572=CARTESIAN_POINT('',(-180.,-90.,5.));
#1573=CARTESIAN_POINT('',(-180.,0.,5.));
#1574=CARTESIAN_POINT('',(-180.,90.,5.));
#1575=CARTESIAN_POINT('',(-180.,90.,5.));
#1576=CARTESIAN_POINT('',(0.,-90.,5.));
#1577=CARTESIAN_POINT('',(0.,-90.,0.));
#1578=CARTESIAN_POINT('',(180.,-90.,0.));
#1579=CARTESIAN_POINT('',(180.,-90.,5.));
#1580=CARTESIAN_POINT('',(180.,-90.,5.));
#1581=CARTESIAN_POINT('',(0.,-90.,5.));
#1582=CARTESIAN_POINT('',(180.,0.,5.));
#1583=CARTESIAN_POINT('',(180.,0.,0.));
#1584=CARTESIAN_POINT('',(180.,90.,0.));
#1585=CARTESIAN_POINT('',(180.,90.,5.));
#1586=CARTESIAN_POINT('',(180.,90.,5.));
#1587=CARTESIAN_POINT('',(180.,0.,5.));
#1588=CARTESIAN_POINT('',(0.,90.,5.));
#1589=CARTESIAN_POINT('',(0.,90.,0.));
#1590=CARTESIAN_POINT('',(0.,90.,5.));
#1591=CARTESIAN_POINT('',(0.,0.,5.));
#1592=CARTESIAN_POINT('',(10.27,-8.69054151135694E-16,5.));
#1593=CARTESIAN_POINT('',(10.27,35.5100072920322,5.));
#1594=CARTESIAN_POINT('',(10.27,15.0100072920322,5.));
#1595=CARTESIAN_POINT('',(0.,35.5100072920322,5.));
#1596=CARTESIAN_POINT('',(38.27,35.5100072920322,5.));
#1597=CARTESIAN_POINT('',(38.27,0.,5.));
#1598=CARTESIAN_POINT('',(38.27,15.0100072920322,5.));
#1599=CARTESIAN_POINT('',(0.,15.0100072920322,5.));
#1600=CARTESIAN_POINT('',(138.422557277871,24.0220724472727,5.));
#1601=CARTESIAN_POINT('',(138.422557277871,21.0220724472727,5.));
#1602=CARTESIAN_POINT('',(97.9626456726738,24.0220724472726,5.));
#1603=CARTESIAN_POINT('',(97.9626456726738,21.0220724472726,5.));
#1604=CARTESIAN_POINT('',(105.255847491406,24.0220724472727,5.));
#1605=CARTESIAN_POINT('',(105.255847491406,13.0220724472727,5.));
#1606=CARTESIAN_POINT('',(113.764585531434,24.0220724472726,5.));
#1607=CARTESIAN_POINT('',(113.764585531434,11.0220724472726,5.));
#1608=CARTESIAN_POINT('',(122.030004858971,24.0220724472726,5.));
#1609=CARTESIAN_POINT('',(122.030004858971,11.0220724472726,5.));
#1610=CARTESIAN_POINT('',(130.261113085495,24.0220724472726,5.));
#1611=CARTESIAN_POINT('',(130.261113085495,13.0220724472726,5.));
#1612=CARTESIAN_POINT('',(-130.,0.,5.));
#1613=CARTESIAN_POINT('',(-130.,-80.,5.));
#1614=CARTESIAN_POINT('',(-130.,-77.,5.));
#1615=CARTESIAN_POINT('',(0.,-80.,5.));
#1616=CARTESIAN_POINT('',(-150.,-80.,5.));
#1617=CARTESIAN_POINT('',(-150.,0.,5.));
#1618=CARTESIAN_POINT('',(-150.,-77.,5.));
#1619=CARTESIAN_POINT('',(0.,-77.,5.));
#1620=CARTESIAN_POINT('',(-63.296697324113,0.,5.));
#1621=CARTESIAN_POINT('',(-63.296697324113,50.5,5.));
#1622=CARTESIAN_POINT('',(-63.296697324113,-10.,5.));
#1623=CARTESIAN_POINT('',(0.,50.5,5.));
#1624=CARTESIAN_POINT('',(-53.496697324113,50.5,5.));
#1625=CARTESIAN_POINT('',(-53.496697324113,0.,5.));
#1626=CARTESIAN_POINT('',(-53.496697324113,-10.,5.));
#1627=CARTESIAN_POINT('',(0.,-10.,5.));
#1628=CARTESIAN_POINT('',(-58.396697324113,-56.25,5.));
#1629=CARTESIAN_POINT('',(-45.146697324113,-56.25,5.));
#1630=CARTESIAN_POINT('',(140.5,0.,5.));
#1631=CARTESIAN_POINT('',(140.5,-42.,5.));
#1632=CARTESIAN_POINT('',(140.5,-70.5,5.));
#1633=CARTESIAN_POINT('',(0.,-42.,5.));
#1634=CARTESIAN_POINT('',(155.,-42.,5.));
#1635=CARTESIAN_POINT('',(155.,0.,5.));
#1636=CARTESIAN_POINT('',(155.,-70.5,5.));
#1637=CARTESIAN_POINT('',(0.,-70.5,5.));
#1638=CARTESIAN_POINT('',(120.39,5.86226973397467E-14,5.));
#1639=CARTESIAN_POINT('',(120.39,-42.,5.));
#1640=CARTESIAN_POINT('',(120.39,-70.5,5.));
#1641=CARTESIAN_POINT('',(0.,-42.,5.));
#1642=CARTESIAN_POINT('',(134.89,-42.,5.));
#1643=CARTESIAN_POINT('',(134.89,0.,5.));
#1644=CARTESIAN_POINT('',(134.89,-70.5,5.));
#1645=CARTESIAN_POINT('',(0.,-70.5,5.));
#1646=CARTESIAN_POINT('',(100.28,4.88303354865836E-14,5.));
#1647=CARTESIAN_POINT('',(100.28,-42.,5.));
#1648=CARTESIAN_POINT('',(100.28,-70.5,5.));
#1649=CARTESIAN_POINT('',(0.,-42.,5.));
#1650=CARTESIAN_POINT('',(114.78,-42.,5.));
#1651=CARTESIAN_POINT('',(114.78,5.58909643712612E-14,5.));
#1652=CARTESIAN_POINT('',(114.78,-70.5,5.));
#1653=CARTESIAN_POINT('',(0.,-70.5,5.));
#1654=CARTESIAN_POINT('',(80.17,3.90379736334205E-14,5.));
#1655=CARTESIAN_POINT('',(80.17,-42.,5.));
#1656=CARTESIAN_POINT('',(80.17,-70.5,5.));
#1657=CARTESIAN_POINT('',(0.,-42.,5.));
#1658=CARTESIAN_POINT('',(94.67,-42.,5.));
#1659=CARTESIAN_POINT('',(94.67,4.6098602518098E-14,5.));
#1660=CARTESIAN_POINT('',(94.67,-70.5,5.));
#1661=CARTESIAN_POINT('',(0.,-70.5,5.));
#1662=CARTESIAN_POINT('',(0.,-70.5,5.));
#1663=CARTESIAN_POINT('',(59.63,-70.5,5.));
#1664=CARTESIAN_POINT('',(74.13,-70.5,5.));
#1665=CARTESIAN_POINT('',(59.63,1.45181138066662E-14,5.));
#1666=CARTESIAN_POINT('',(59.63,-42.,5.));
#1667=CARTESIAN_POINT('',(0.,-42.,5.));
#1668=CARTESIAN_POINT('',(74.13,-42.,5.));
#1669=CARTESIAN_POINT('',(74.13,3.609685649801E-14,5.));
#1670=CARTESIAN_POINT('',(39.52,9.62193288008468E-15,5.));
#1671=CARTESIAN_POINT('',(39.52,-42.,5.));
#1672=CARTESIAN_POINT('',(39.52,-70.5,5.));
#1673=CARTESIAN_POINT('',(0.,-42.,5.));
#1674=CARTESIAN_POINT('',(54.02,-42.,5.));
#1675=CARTESIAN_POINT('',(54.02,1.31522473224234E-14,5.));
#1676=CARTESIAN_POINT('',(54.02,-70.5,5.));
#1677=CARTESIAN_POINT('',(0.,-70.5,5.));
#1678=CARTESIAN_POINT('',(31.52,7.67417318775985E-15,5.));
#1679=CARTESIAN_POINT('',(31.52,-70.5,5.));
#1680=CARTESIAN_POINT('',(31.52,-42.,5.));
#1681=CARTESIAN_POINT('',(0.,-70.5,5.));
#1682=CARTESIAN_POINT('',(17.02,-70.5,5.));
#1683=CARTESIAN_POINT('',(17.02,6.21578811813162E-15,5.));
#1684=CARTESIAN_POINT('',(17.02,-42.,5.));
#1685=CARTESIAN_POINT('',(0.,-42.,5.));
#1686=CARTESIAN_POINT('',(-3.09000000000005,-1.4106040896759E-15,5.));
#1687=CARTESIAN_POINT('',(-3.09,-42.,5.));
#1688=CARTESIAN_POINT('',(-3.09,-70.5,5.));
#1689=CARTESIAN_POINT('',(2.00988651009726E-14,-42.,5.));
#1690=CARTESIAN_POINT('',(11.41,-42.,5.));
#1691=CARTESIAN_POINT('',(11.41,2.08349419588372E-15,5.));
#1692=CARTESIAN_POINT('',(11.41,-70.5,5.));
#1693=CARTESIAN_POINT('',(0.,-70.5,5.));
#1694=CARTESIAN_POINT('',(0.,0.,0.));
#1695=CARTESIAN_POINT('',(24.27,35.5100072920322,0.));
#1696=CARTESIAN_POINT('',(10.27,35.5100072920322,0.));
#1697=CARTESIAN_POINT('',(38.27,35.5100072920322,0.));
#1698=CARTESIAN_POINT('',(10.27,25.2600072920322,0.));
#1699=CARTESIAN_POINT('',(10.27,15.0100072920322,0.));
#1700=CARTESIAN_POINT('',(24.27,15.0100072920322,0.));
#1701=CARTESIAN_POINT('',(38.27,15.0100072920322,0.));
#1702=CARTESIAN_POINT('',(38.27,25.2600072920322,0.));
#1703=CARTESIAN_POINT('',(138.422557277871,24.0220724472727,0.));
#1704=CARTESIAN_POINT('',(138.422557277871,21.0220724472727,0.));
#1705=CARTESIAN_POINT('',(97.9626456726738,24.0220724472726,0.));
#1706=CARTESIAN_POINT('',(97.9626456726738,21.0220724472726,0.));
#1707=CARTESIAN_POINT('',(105.255847491406,24.0220724472727,0.));
#1708=CARTESIAN_POINT('',(105.255847491406,13.0220724472727,0.));
#1709=CARTESIAN_POINT('',(113.764585531434,24.0220724472726,0.));
#1710=CARTESIAN_POINT('',(113.764585531434,11.0220724472726,0.));
#1711=CARTESIAN_POINT('',(122.030004858971,24.0220724472726,0.));
#1712=CARTESIAN_POINT('',(122.030004858971,11.0220724472726,0.));
#1713=CARTESIAN_POINT('',(130.261113085495,24.0220724472726,0.));
#1714=CARTESIAN_POINT('',(130.261113085495,13.0220724472726,0.));
#1715=CARTESIAN_POINT('',(-140.,-80.,0.));
#1716=CARTESIAN_POINT('',(-130.,-80.,0.));
#1717=CARTESIAN_POINT('',(-150.,-80.,0.));
#1718=CARTESIAN_POINT('',(-130.,-78.5,0.));
#1719=CARTESIAN_POINT('',(-130.,-77.,0.));
#1720=CARTESIAN_POINT('',(-140.,-77.,0.));
#1721=CARTESIAN_POINT('',(-150.,-77.,0.));
#1722=CARTESIAN_POINT('',(-150.,-78.5,0.));
#1723=CARTESIAN_POINT('',(-58.396697324113,50.5,0.));
#1724=CARTESIAN_POINT('',(-63.296697324113,50.5,0.));
#1725=CARTESIAN_POINT('',(-53.496697324113,50.5,0.));
#1726=CARTESIAN_POINT('',(-63.296697324113,20.25,0.));
#1727=CARTESIAN_POINT('',(-63.296697324113,-10.,0.));
#1728=CARTESIAN_POINT('',(-58.396697324113,-10.,0.));
#1729=CARTESIAN_POINT('',(-53.496697324113,-10.,0.));
#1730=CARTESIAN_POINT('',(-53.496697324113,20.25,0.));
#1731=CARTESIAN_POINT('',(-58.396697324113,-56.25,0.));
#1732=CARTESIAN_POINT('',(-45.146697324113,-56.25,0.));
#1733=CARTESIAN_POINT('',(147.75,-42.,0.));
#1734=CARTESIAN_POINT('',(140.5,-42.,0.));
#1735=CARTESIAN_POINT('',(155.,-42.,0.));
#1736=CARTESIAN_POINT('',(140.5,-56.25,0.));
#1737=CARTESIAN_POINT('',(140.5,-70.5,0.));
#1738=CARTESIAN_POINT('',(147.75,-70.5,0.));
#1739=CARTESIAN_POINT('',(155.,-70.5,0.));
#1740=CARTESIAN_POINT('',(155.,-56.25,0.));
#1741=CARTESIAN_POINT('',(127.64,-42.,0.));
#1742=CARTESIAN_POINT('',(120.39,-42.,0.));
#1743=CARTESIAN_POINT('',(134.89,-42.,0.));
#1744=CARTESIAN_POINT('',(120.39,-56.25,0.));
#1745=CARTESIAN_POINT('',(120.39,-70.5,0.));
#1746=CARTESIAN_POINT('',(127.64,-70.5,0.));
#1747=CARTESIAN_POINT('',(134.89,-70.5,0.));
#1748=CARTESIAN_POINT('',(134.89,-56.25,0.));
#1749=CARTESIAN_POINT('',(107.53,-42.,0.));
#1750=CARTESIAN_POINT('',(100.28,-42.,0.));
#1751=CARTESIAN_POINT('',(114.78,-42.,0.));
#1752=CARTESIAN_POINT('',(100.28,-56.25,0.));
#1753=CARTESIAN_POINT('',(100.28,-70.5,0.));
#1754=CARTESIAN_POINT('',(107.53,-70.5,0.));
#1755=CARTESIAN_POINT('',(114.78,-70.5,0.));
#1756=CARTESIAN_POINT('',(114.78,-56.25,0.));
#1757=CARTESIAN_POINT('',(87.42,-42.,0.));
#1758=CARTESIAN_POINT('',(80.17,-42.,0.));
#1759=CARTESIAN_POINT('',(94.67,-42.,0.));
#1760=CARTESIAN_POINT('',(80.17,-56.25,0.));
#1761=CARTESIAN_POINT('',(80.17,-70.5,0.));
#1762=CARTESIAN_POINT('',(87.42,-70.5,0.));
#1763=CARTESIAN_POINT('',(94.67,-70.5,0.));
#1764=CARTESIAN_POINT('',(94.67,-56.25,0.));
#1765=CARTESIAN_POINT('',(59.63,-56.25,0.));
#1766=CARTESIAN_POINT('',(59.63,-70.5,0.));
#1767=CARTESIAN_POINT('',(59.63,-42.,0.));
#1768=CARTESIAN_POINT('',(66.88,-70.5,0.));
#1769=CARTESIAN_POINT('',(74.13,-70.5,0.));
#1770=CARTESIAN_POINT('',(74.13,-56.25,0.));
#1771=CARTESIAN_POINT('',(74.13,-42.,0.));
#1772=CARTESIAN_POINT('',(66.88,-42.,0.));
#1773=CARTESIAN_POINT('',(46.77,-42.,0.));
#1774=CARTESIAN_POINT('',(39.52,-42.,0.));
#1775=CARTESIAN_POINT('',(54.02,-42.,0.));
#1776=CARTESIAN_POINT('',(39.52,-56.25,0.));
#1777=CARTESIAN_POINT('',(39.52,-70.5,0.));
#1778=CARTESIAN_POINT('',(46.77,-70.5,0.));
#1779=CARTESIAN_POINT('',(54.02,-70.5,0.));
#1780=CARTESIAN_POINT('',(54.02,-56.25,0.));
#1781=CARTESIAN_POINT('',(24.27,-70.5,0.));
#1782=CARTESIAN_POINT('',(31.52,-70.5,0.));
#1783=CARTESIAN_POINT('',(17.02,-70.5,0.));
#1784=CARTESIAN_POINT('',(31.52,-56.25,0.));
#1785=CARTESIAN_POINT('',(31.52,-42.,0.));
#1786=CARTESIAN_POINT('',(24.27,-42.,0.));
#1787=CARTESIAN_POINT('',(17.02,-42.,0.));
#1788=CARTESIAN_POINT('',(17.02,-56.25,0.));
#1789=CARTESIAN_POINT('',(4.16,-42.,0.));
#1790=CARTESIAN_POINT('',(-3.09,-42.,0.));
#1791=CARTESIAN_POINT('',(11.41,-42.,0.));
#1792=CARTESIAN_POINT('',(-3.09,-56.25,0.));
#1793=CARTESIAN_POINT('',(-3.09,-70.5,0.));
#1794=CARTESIAN_POINT('',(4.16,-70.5,0.));
#1795=CARTESIAN_POINT('',(11.41,-70.5,0.));
#1796=CARTESIAN_POINT('',(11.41,-56.25,0.));
#1797=CARTESIAN_POINT('',(-3.09,-56.25,55.));
#1798=CARTESIAN_POINT('',(-3.09,-70.5,55.));
#1799=CARTESIAN_POINT('',(-3.09,-42.,55.));
#1800=CARTESIAN_POINT('',(4.16,-70.5,55.));
#1801=CARTESIAN_POINT('',(11.41,-70.5,55.));
#1802=CARTESIAN_POINT('',(11.41,-56.25,55.));
#1803=CARTESIAN_POINT('',(11.41,-42.,55.));
#1804=CARTESIAN_POINT('',(4.16,-42.,55.));
#1805=CARTESIAN_POINT('',(31.52,-56.25,55.));
#1806=CARTESIAN_POINT('',(31.52,-42.,55.));
#1807=CARTESIAN_POINT('',(31.52,-70.5,55.));
#1808=CARTESIAN_POINT('',(24.27,-42.,55.));
#1809=CARTESIAN_POINT('',(17.02,-42.,55.));
#1810=CARTESIAN_POINT('',(17.02,-56.25,55.));
#1811=CARTESIAN_POINT('',(17.02,-70.5,55.));
#1812=CARTESIAN_POINT('',(24.27,-70.5,55.));
#1813=CARTESIAN_POINT('',(39.52,-56.25,55.));
#1814=CARTESIAN_POINT('',(39.52,-70.5,55.));
#1815=CARTESIAN_POINT('',(39.52,-42.,55.));
#1816=CARTESIAN_POINT('',(46.77,-70.5,55.));
#1817=CARTESIAN_POINT('',(54.02,-70.5,55.));
#1818=CARTESIAN_POINT('',(54.02,-56.25,55.));
#1819=CARTESIAN_POINT('',(54.02,-42.,55.));
#1820=CARTESIAN_POINT('',(46.77,-42.,55.));
#1821=CARTESIAN_POINT('',(66.88,-70.5,55.));
#1822=CARTESIAN_POINT('',(74.13,-70.5,55.));
#1823=CARTESIAN_POINT('',(59.63,-70.5,55.));
#1824=CARTESIAN_POINT('',(74.13,-56.25,55.));
#1825=CARTESIAN_POINT('',(74.13,-42.,55.));
#1826=CARTESIAN_POINT('',(66.88,-42.,55.));
#1827=CARTESIAN_POINT('',(59.63,-42.,55.));
#1828=CARTESIAN_POINT('',(59.63,-56.25,55.));
#1829=CARTESIAN_POINT('',(80.17,-56.25,55.));
#1830=CARTESIAN_POINT('',(80.17,-70.5,55.));
#1831=CARTESIAN_POINT('',(80.17,-42.,55.));
#1832=CARTESIAN_POINT('',(87.42,-70.5,55.));
#1833=CARTESIAN_POINT('',(94.67,-70.5,55.));
#1834=CARTESIAN_POINT('',(94.67,-56.25,55.));
#1835=CARTESIAN_POINT('',(94.67,-42.,55.));
#1836=CARTESIAN_POINT('',(87.42,-42.,55.));
#1837=CARTESIAN_POINT('',(100.28,-56.25,55.));
#1838=CARTESIAN_POINT('',(100.28,-70.5,55.));
#1839=CARTESIAN_POINT('',(100.28,-42.,55.));
#1840=CARTESIAN_POINT('',(107.53,-70.5,55.));
#1841=CARTESIAN_POINT('',(114.78,-70.5,55.));
#1842=CARTESIAN_POINT('',(114.78,-56.25,55.));
#1843=CARTESIAN_POINT('',(114.78,-42.,55.));
#1844=CARTESIAN_POINT('',(107.53,-42.,55.));
#1845=CARTESIAN_POINT('',(120.39,-56.25,55.));
#1846=CARTESIAN_POINT('',(120.39,-70.5,55.));
#1847=CARTESIAN_POINT('',(120.39,-42.,55.));
#1848=CARTESIAN_POINT('',(127.64,-70.5,55.));
#1849=CARTESIAN_POINT('',(134.89,-70.5,55.));
#1850=CARTESIAN_POINT('',(134.89,-56.25,55.));
#1851=CARTESIAN_POINT('',(134.89,-42.,55.));
#1852=CARTESIAN_POINT('',(127.64,-42.,55.));
#1853=CARTESIAN_POINT('',(140.5,-56.25,55.));
#1854=CARTESIAN_POINT('',(140.5,-70.5,55.));
#1855=CARTESIAN_POINT('',(140.5,-42.,55.));
#1856=CARTESIAN_POINT('',(147.75,-70.5,55.));
#1857=CARTESIAN_POINT('',(155.,-70.5,55.));
#1858=CARTESIAN_POINT('',(155.,-56.25,55.));
#1859=CARTESIAN_POINT('',(155.,-42.,55.));
#1860=CARTESIAN_POINT('',(147.75,-42.,55.));
#1861=CARTESIAN_POINT('',(-58.396697324113,-56.25,25.));
#1862=CARTESIAN_POINT('',(-63.296697324113,20.25,25.));
#1863=CARTESIAN_POINT('',(-63.296697324113,-10.,25.));
#1864=CARTESIAN_POINT('',(-63.296697324113,50.5,25.));
#1865=CARTESIAN_POINT('',(-58.396697324113,-10.,25.));
#1866=CARTESIAN_POINT('',(-53.496697324113,-10.,25.));
#1867=CARTESIAN_POINT('',(-53.496697324113,20.25,25.));
#1868=CARTESIAN_POINT('',(-53.496697324113,50.5,25.));
#1869=CARTESIAN_POINT('',(-58.396697324113,50.5,25.));
#1870=CARTESIAN_POINT('',(-130.,-78.5,25.));
#1871=CARTESIAN_POINT('',(-130.,-77.,25.));
#1872=CARTESIAN_POINT('',(-130.,-80.,25.));
#1873=CARTESIAN_POINT('',(-140.,-77.,25.));
#1874=CARTESIAN_POINT('',(-150.,-77.,25.));
#1875=CARTESIAN_POINT('',(-150.,-78.5,25.));
#1876=CARTESIAN_POINT('',(-150.,-80.,25.));
#1877=CARTESIAN_POINT('',(-140.,-80.,25.));
#1878=CARTESIAN_POINT('',(129.475820610665,13.5948218598701,5.));
#1879=CARTESIAN_POINT('',(129.475820610665,13.5948218598701,1.73472347597681E-15));
#1880=CARTESIAN_POINT('',(130.261113085495,12.7356977409738,5.));
#1881=CARTESIAN_POINT('',(130.261113085495,12.7356977409738,-8.67361737988404E-16));
#1882=CARTESIAN_POINT('',(131.046405560325,13.5948218598701,5.));
#1883=CARTESIAN_POINT('',(131.046405560325,13.5948218598701,1.73472347597681E-15));
#1884=CARTESIAN_POINT('',(131.712144374556,16.0414003574364,5.));
#1885=CARTESIAN_POINT('',(131.712144374556,16.0414003574364,0.));
#1886=CARTESIAN_POINT('',(132.156976828659,19.7029638357077,5.));
#1887=CARTESIAN_POINT('',(132.156976828659,19.7029638357077,-8.67361737988404E-16));
#1888=CARTESIAN_POINT('',(132.313181213913,24.0220724472726,5.));
#1889=CARTESIAN_POINT('',(132.313181213913,24.0220724472726,0.));
#1890=CARTESIAN_POINT('',(132.156976828659,28.3411810588375,5.));
#1891=CARTESIAN_POINT('',(132.156976828659,28.3411810588375,8.67361737988404E-16));
#1892=CARTESIAN_POINT('',(131.712144374556,32.0027445371088,5.));
#1893=CARTESIAN_POINT('',(131.712144374556,32.0027445371088,8.67361737988404E-16));
#1894=CARTESIAN_POINT('',(131.046405560325,34.4493230346751,5.));
#1895=CARTESIAN_POINT('',(131.046405560325,34.4493230346751,8.67361737988404E-16));
#1896=CARTESIAN_POINT('',(130.261113085495,35.3084471535713,5.));
#1897=CARTESIAN_POINT('',(130.261113085495,35.3084471535713,0.));
#1898=CARTESIAN_POINT('',(129.475820610665,34.4493230346751,5.));
#1899=CARTESIAN_POINT('',(129.475820610665,34.4493230346751,8.67361737988404E-16));
#1900=CARTESIAN_POINT('',(128.810081796434,32.0027445371088,5.));
#1901=CARTESIAN_POINT('',(128.810081796434,32.0027445371088,8.67361737988404E-16));
#1902=CARTESIAN_POINT('',(128.365249342331,28.3411810588376,5.));
#1903=CARTESIAN_POINT('',(128.365249342331,28.3411810588376,8.67361737988404E-16));
#1904=CARTESIAN_POINT('',(128.209044957077,24.0220724472726,5.));
#1905=CARTESIAN_POINT('',(128.209044957077,24.0220724472726,8.67361737988404E-16));
#1906=CARTESIAN_POINT('',(128.365249342331,19.7029638357077,5.));
#1907=CARTESIAN_POINT('',(128.365249342331,19.7029638357077,8.67361737988404E-16));
#1908=CARTESIAN_POINT('',(128.810081796434,16.0414003574365,5.));
#1909=CARTESIAN_POINT('',(128.810081796434,16.0414003574365,0.));
#1910=CARTESIAN_POINT('',(129.475820610665,13.5948218598701,5.));
#1911=CARTESIAN_POINT('',(129.475820610665,13.5948218598701,1.73472347597681E-15));
#1912=CARTESIAN_POINT('',(130.261113085495,12.7356977409738,5.));
#1913=CARTESIAN_POINT('',(130.261113085495,12.7356977409738,-8.67361737988404E-16));
#1914=CARTESIAN_POINT('',(131.046405560325,13.5948218598701,5.));
#1915=CARTESIAN_POINT('',(131.046405560325,13.5948218598701,1.73472347597681E-15));
#1916=CARTESIAN_POINT('',(121.244712384141,11.698958116706,5.));
#1917=CARTESIAN_POINT('',(121.244712384141,11.698958116706,1.73472347597681E-15));
#1918=CARTESIAN_POINT('',(122.030004858971,10.6836296125559,5.));
#1919=CARTESIAN_POINT('',(122.030004858971,10.6836296125559,-8.67361737988404E-16));
#1920=CARTESIAN_POINT('',(122.815297333801,11.698958116706,5.));
#1921=CARTESIAN_POINT('',(122.815297333801,11.698958116706,1.73472347597681E-15));
#1922=CARTESIAN_POINT('',(123.481036148032,14.5903690683753,5.));
#1923=CARTESIAN_POINT('',(123.481036148032,14.5903690683753,0.));
#1924=CARTESIAN_POINT('',(123.925868602135,18.9176713608777,5.));
#1925=CARTESIAN_POINT('',(123.925868602135,18.9176713608777,-8.67361737988404E-16));
#1926=CARTESIAN_POINT('',(124.082072987389,24.0220724472726,5.));
#1927=CARTESIAN_POINT('',(124.082072987389,24.0220724472726,0.));
#1928=CARTESIAN_POINT('',(123.925868602135,29.1264735336675,5.));
#1929=CARTESIAN_POINT('',(123.925868602135,29.1264735336675,8.67361737988404E-16));
#1930=CARTESIAN_POINT('',(123.481036148032,33.4537758261699,5.));
#1931=CARTESIAN_POINT('',(123.481036148032,33.4537758261699,8.67361737988404E-16));
#1932=CARTESIAN_POINT('',(122.815297333801,36.3451867778392,5.));
#1933=CARTESIAN_POINT('',(122.815297333801,36.3451867778392,8.67361737988404E-16));
#1934=CARTESIAN_POINT('',(122.030004858971,37.3605152819893,5.));
#1935=CARTESIAN_POINT('',(122.030004858971,37.3605152819893,0.));
#1936=CARTESIAN_POINT('',(121.244712384141,36.3451867778392,5.));
#1937=CARTESIAN_POINT('',(121.244712384141,36.3451867778392,8.67361737988404E-16));
#1938=CARTESIAN_POINT('',(120.57897356991,33.4537758261699,5.));
#1939=CARTESIAN_POINT('',(120.57897356991,33.4537758261699,8.67361737988404E-16));
#1940=CARTESIAN_POINT('',(120.134141115807,29.1264735336676,5.));
#1941=CARTESIAN_POINT('',(120.134141115807,29.1264735336676,8.67361737988404E-16));
#1942=CARTESIAN_POINT('',(119.977936730553,24.0220724472726,5.));
#1943=CARTESIAN_POINT('',(119.977936730553,24.0220724472726,8.67361737988404E-16));
#1944=CARTESIAN_POINT('',(120.134141115807,18.9176713608777,5.));
#1945=CARTESIAN_POINT('',(120.134141115807,18.9176713608777,8.67361737988404E-16));
#1946=CARTESIAN_POINT('',(120.578973569909,14.5903690683753,5.));
#1947=CARTESIAN_POINT('',(120.578973569909,14.5903690683753,0.));
#1948=CARTESIAN_POINT('',(121.244712384141,11.698958116706,5.));
#1949=CARTESIAN_POINT('',(121.244712384141,11.698958116706,1.73472347597681E-15));
#1950=CARTESIAN_POINT('',(122.030004858971,10.6836296125559,5.));
#1951=CARTESIAN_POINT('',(122.030004858971,10.6836296125559,-8.67361737988404E-16));
#1952=CARTESIAN_POINT('',(122.815297333801,11.698958116706,5.));
#1953=CARTESIAN_POINT('',(122.815297333801,11.698958116706,1.73472347597681E-15));
#1954=CARTESIAN_POINT('',(112.979293056604,11.698958116706,5.));
#1955=CARTESIAN_POINT('',(112.979293056604,11.698958116706,1.73472347597681E-15));
#1956=CARTESIAN_POINT('',(113.764585531434,10.6836296125559,5.));
#1957=CARTESIAN_POINT('',(113.764585531434,10.6836296125559,-8.67361737988404E-16));
#1958=CARTESIAN_POINT('',(114.549878006264,11.698958116706,5.));
#1959=CARTESIAN_POINT('',(114.549878006264,11.698958116706,1.73472347597681E-15));
#1960=CARTESIAN_POINT('',(115.215616820495,14.5903690683753,5.));
#1961=CARTESIAN_POINT('',(115.215616820495,14.5903690683753,0.));
#1962=CARTESIAN_POINT('',(115.660449274598,18.9176713608777,5.));
#1963=CARTESIAN_POINT('',(115.660449274598,18.9176713608777,-8.67361737988404E-16));
#1964=CARTESIAN_POINT('',(115.816653659852,24.0220724472726,5.));
#1965=CARTESIAN_POINT('',(115.816653659852,24.0220724472726,0.));
#1966=CARTESIAN_POINT('',(115.660449274598,29.1264735336675,5.));
#1967=CARTESIAN_POINT('',(115.660449274598,29.1264735336675,8.67361737988404E-16));
#1968=CARTESIAN_POINT('',(115.215616820495,33.4537758261699,5.));
#1969=CARTESIAN_POINT('',(115.215616820495,33.4537758261699,8.67361737988404E-16));
#1970=CARTESIAN_POINT('',(114.549878006264,36.3451867778392,5.));
#1971=CARTESIAN_POINT('',(114.549878006264,36.3451867778392,8.67361737988404E-16));
#1972=CARTESIAN_POINT('',(113.764585531434,37.3605152819893,5.));
#1973=CARTESIAN_POINT('',(113.764585531434,37.3605152819893,0.));
#1974=CARTESIAN_POINT('',(112.979293056604,36.3451867778392,5.));
#1975=CARTESIAN_POINT('',(112.979293056604,36.3451867778392,8.67361737988404E-16));
#1976=CARTESIAN_POINT('',(112.313554242373,33.4537758261699,5.));
#1977=CARTESIAN_POINT('',(112.313554242373,33.4537758261699,8.67361737988404E-16));
#1978=CARTESIAN_POINT('',(111.86872178827,29.1264735336676,5.));
#1979=CARTESIAN_POINT('',(111.86872178827,29.1264735336676,8.67361737988404E-16));
#1980=CARTESIAN_POINT('',(111.712517403016,24.0220724472726,5.));
#1981=CARTESIAN_POINT('',(111.712517403016,24.0220724472726,8.67361737988404E-16));
#1982=CARTESIAN_POINT('',(111.86872178827,18.9176713608777,5.));
#1983=CARTESIAN_POINT('',(111.86872178827,18.9176713608777,8.67361737988404E-16));
#1984=CARTESIAN_POINT('',(112.313554242372,14.5903690683753,5.));
#1985=CARTESIAN_POINT('',(112.313554242372,14.5903690683753,0.));
#1986=CARTESIAN_POINT('',(112.979293056604,11.698958116706,5.));
#1987=CARTESIAN_POINT('',(112.979293056604,11.698958116706,1.73472347597681E-15));
#1988=CARTESIAN_POINT('',(113.764585531434,10.6836296125559,5.));
#1989=CARTESIAN_POINT('',(113.764585531434,10.6836296125559,-8.67361737988404E-16));
#1990=CARTESIAN_POINT('',(114.549878006264,11.698958116706,5.));
#1991=CARTESIAN_POINT('',(114.549878006264,11.698958116706,1.73472347597681E-15));
#1992=CARTESIAN_POINT('',(104.470555016576,13.5948218598702,5.));
#1993=CARTESIAN_POINT('',(104.470555016576,13.5948218598702,1.73472347597681E-15));
#1994=CARTESIAN_POINT('',(105.255847491406,12.7356977409739,5.));
#1995=CARTESIAN_POINT('',(105.255847491406,12.7356977409739,-8.67361737988404E-16));
#1996=CARTESIAN_POINT('',(106.041139966236,13.5948218598702,5.));
#1997=CARTESIAN_POINT('',(106.041139966236,13.5948218598702,1.73472347597681E-15));
#1998=CARTESIAN_POINT('',(106.706878780467,16.0414003574365,5.));
#1999=CARTESIAN_POINT('',(106.706878780467,16.0414003574365,0.));
#2000=CARTESIAN_POINT('',(107.15171123457,19.7029638357077,5.));
#2001=CARTESIAN_POINT('',(107.15171123457,19.7029638357077,-8.67361737988404E-16));
#2002=CARTESIAN_POINT('',(107.307915619824,24.0220724472727,5.));
#2003=CARTESIAN_POINT('',(107.307915619824,24.0220724472727,0.));
#2004=CARTESIAN_POINT('',(107.15171123457,28.3411810588376,5.));
#2005=CARTESIAN_POINT('',(107.15171123457,28.3411810588376,8.67361737988404E-16));
#2006=CARTESIAN_POINT('',(106.706878780467,32.0027445371088,5.));
#2007=CARTESIAN_POINT('',(106.706878780467,32.0027445371088,8.67361737988404E-16));
#2008=CARTESIAN_POINT('',(106.041139966236,34.4493230346751,5.));
#2009=CARTESIAN_POINT('',(106.041139966236,34.4493230346751,8.67361737988404E-16));
#2010=CARTESIAN_POINT('',(105.255847491406,35.3084471535714,5.));
#2011=CARTESIAN_POINT('',(105.255847491406,35.3084471535714,0.));
#2012=CARTESIAN_POINT('',(104.470555016576,34.4493230346752,5.));
#2013=CARTESIAN_POINT('',(104.470555016576,34.4493230346752,8.67361737988404E-16));
#2014=CARTESIAN_POINT('',(103.804816202345,32.0027445371088,5.));
#2015=CARTESIAN_POINT('',(103.804816202345,32.0027445371088,8.67361737988404E-16));
#2016=CARTESIAN_POINT('',(103.359983748242,28.3411810588376,5.));
#2017=CARTESIAN_POINT('',(103.359983748242,28.3411810588376,8.67361737988404E-16));
#2018=CARTESIAN_POINT('',(103.203779362988,24.0220724472726,5.));
#2019=CARTESIAN_POINT('',(103.203779362988,24.0220724472726,8.67361737988404E-16));
#2020=CARTESIAN_POINT('',(103.359983748242,19.7029638357077,5.));
#2021=CARTESIAN_POINT('',(103.359983748242,19.7029638357077,8.67361737988404E-16));
#2022=CARTESIAN_POINT('',(103.804816202345,16.0414003574365,5.));
#2023=CARTESIAN_POINT('',(103.804816202345,16.0414003574365,0.));
#2024=CARTESIAN_POINT('',(104.470555016576,13.5948218598702,5.));
#2025=CARTESIAN_POINT('',(104.470555016576,13.5948218598702,1.73472347597681E-15));
#2026=CARTESIAN_POINT('',(105.255847491406,12.7356977409739,5.));
#2027=CARTESIAN_POINT('',(105.255847491406,12.7356977409739,-8.67361737988404E-16));
#2028=CARTESIAN_POINT('',(106.041139966236,13.5948218598702,5.));
#2029=CARTESIAN_POINT('',(106.041139966236,13.5948218598702,1.73472347597681E-15));
#2030=CARTESIAN_POINT('',(97.1790340477826,21.6712375725989,5.));
#2031=CARTESIAN_POINT('',(97.1790340477826,21.6712375725989,8.67361737988404E-16));
#2032=CARTESIAN_POINT('',(97.9626456726738,20.6974898846094,5.));
#2033=CARTESIAN_POINT('',(97.9626456726738,20.6974898846094,8.67361737988404E-16));
#2034=CARTESIAN_POINT('',(98.746257297565,21.6712375725989,5.));
#2035=CARTESIAN_POINT('',(98.746257297565,21.6712375725989,0.));
#2036=CARTESIAN_POINT('',(99.0708398602282,24.0220724472726,5.));
#2037=CARTESIAN_POINT('',(99.0708398602282,24.0220724472726,0.));
#2038=CARTESIAN_POINT('',(98.746257297565,26.3729073219463,5.));
#2039=CARTESIAN_POINT('',(98.746257297565,26.3729073219463,0.));
#2040=CARTESIAN_POINT('',(97.9626456726738,27.3466550099358,5.));
#2041=CARTESIAN_POINT('',(97.9626456726738,27.3466550099358,-8.67361737988404E-16));
#2042=CARTESIAN_POINT('',(97.1790340477826,26.3729073219463,5.));
#2043=CARTESIAN_POINT('',(97.1790340477826,26.3729073219463,8.67361737988404E-16));
#2044=CARTESIAN_POINT('',(96.8544514851194,24.0220724472726,5.));
#2045=CARTESIAN_POINT('',(96.8544514851194,24.0220724472726,0.));
#2046=CARTESIAN_POINT('',(97.1790340477826,21.6712375725989,5.));
#2047=CARTESIAN_POINT('',(97.1790340477826,21.6712375725989,8.67361737988404E-16));
#2048=CARTESIAN_POINT('',(97.9626456726738,20.6974898846094,5.));
#2049=CARTESIAN_POINT('',(97.9626456726738,20.6974898846094,8.67361737988404E-16));
#2050=CARTESIAN_POINT('',(98.746257297565,21.6712375725989,5.));
#2051=CARTESIAN_POINT('',(98.746257297565,21.6712375725989,0.));
#2052=CARTESIAN_POINT('',(137.63894565298,21.671237572599,5.));
#2053=CARTESIAN_POINT('',(137.63894565298,21.671237572599,8.67361737988404E-16));
#2054=CARTESIAN_POINT('',(138.422557277871,20.6974898846095,5.));
#2055=CARTESIAN_POINT('',(138.422557277871,20.6974898846095,8.67361737988404E-16));
#2056=CARTESIAN_POINT('',(139.206168902763,21.671237572599,5.));
#2057=CARTESIAN_POINT('',(139.206168902763,21.671237572599,0.));
#2058=CARTESIAN_POINT('',(139.530751465426,24.0220724472726,5.));
#2059=CARTESIAN_POINT('',(139.530751465426,24.0220724472726,0.));
#2060=CARTESIAN_POINT('',(139.206168902763,26.3729073219463,5.));
#2061=CARTESIAN_POINT('',(139.206168902763,26.3729073219463,0.));
#2062=CARTESIAN_POINT('',(138.422557277871,27.3466550099358,5.));
#2063=CARTESIAN_POINT('',(138.422557277871,27.3466550099358,-8.67361737988404E-16));
#2064=CARTESIAN_POINT('',(137.63894565298,26.3729073219463,5.));
#2065=CARTESIAN_POINT('',(137.63894565298,26.3729073219463,8.67361737988404E-16));
#2066=CARTESIAN_POINT('',(137.314363090317,24.0220724472726,5.));
#2067=CARTESIAN_POINT('',(137.314363090317,24.0220724472726,0.));
#2068=CARTESIAN_POINT('',(137.63894565298,21.671237572599,5.));
#2069=CARTESIAN_POINT('',(137.63894565298,21.671237572599,8.67361737988404E-16));
#2070=CARTESIAN_POINT('',(138.422557277871,20.6974898846095,5.));
#2071=CARTESIAN_POINT('',(138.422557277871,20.6974898846095,8.67361737988404E-16));
#2072=CARTESIAN_POINT('',(139.206168902763,21.671237572599,5.));
#2073=CARTESIAN_POINT('',(139.206168902763,21.671237572599,0.));
#2074=CARTESIAN_POINT('',(10.27,25.2600072920322,25.));
#2075=CARTESIAN_POINT('',(10.27,15.0100072920322,25.));
#2076=CARTESIAN_POINT('',(10.27,35.5100072920322,25.));
#2077=CARTESIAN_POINT('',(24.27,15.0100072920322,25.));
#2078=CARTESIAN_POINT('',(38.27,15.0100072920322,25.));
#2079=CARTESIAN_POINT('',(38.27,25.2600072920322,25.));
#2080=CARTESIAN_POINT('',(38.27,35.5100072920322,25.));
#2081=CARTESIAN_POINT('',(24.27,35.5100072920322,25.));
#2082=MECHANICAL_DESIGN_GEOMETRIC_PRESENTATION_REPRESENTATION('',(#1213),
#2083);
#2083=(
GEOMETRIC_REPRESENTATION_CONTEXT(3)
GLOBAL_UNCERTAINTY_ASSIGNED_CONTEXT((#2084))
GLOBAL_UNIT_ASSIGNED_CONTEXT((#2087,#2086,#2085))
REPRESENTATION_CONTEXT('Part 1','TOP_LEVEL_ASSEMBLY_PART')
);
#2084=UNCERTAINTY_MEASURE_WITH_UNIT(LENGTH_MEASURE(1.E-5),#2087,
'DISTANCE_ACCURACY_VALUE','Maximum Tolerance applied to model');
#2085=(
NAMED_UNIT(*)
SI_UNIT($,.STERADIAN.)
SOLID_ANGLE_UNIT()
);
#2086=(
NAMED_UNIT(*)
PLANE_ANGLE_UNIT()
SI_UNIT($,.RADIAN.)
);
#2087=(
LENGTH_UNIT()
NAMED_UNIT(*)
SI_UNIT(.MILLI.,.METRE.)
);
#2088=PRODUCT_DEFINITION_SHAPE('','',#2089);
#2089=PRODUCT_DEFINITION('','',#2091,#2090);
#2090=PRODUCT_DEFINITION_CONTEXT('',#2097,'design');
#2091=PRODUCT_DEFINITION_FORMATION_WITH_SPECIFIED_SOURCE('','',#2093,
 .NOT_KNOWN.);
#2092=PRODUCT_RELATED_PRODUCT_CATEGORY('','',(#2093));
#2093=PRODUCT('Part 1','Part 1','Part 1',(#2095));
#2094=PRODUCT_CATEGORY('','');
#2095=PRODUCT_CONTEXT('',#2097,'mechanical');
#2096=APPLICATION_PROTOCOL_DEFINITION('international standard',
'ap242_managed_model_based_3d_engineering',2020,#2097);
#2097=APPLICATION_CONTEXT('managed model based 3d engineering');
ENDSEC;
END-ISO-10303-21;
